<svg width="24" height="24" viewBox="0 0 24 24" fill="currentColor" xmlns="http://www.w3.org/2000/svg">
<path d="M15.2041 5.7958C15.1111 5.70207 15.0005 5.62768 14.8787 5.57691C14.7568 5.52614 14.6261 5.5 14.4941 5.5C14.3621 5.5 14.2314 5.52614 14.1095 5.57691C13.9876 5.62768 13.877 5.70207 13.7841 5.7958L8.78408 10.7958C8.69035 10.8888 8.61596 10.9994 8.56519 11.1212C8.51442 11.2431 8.48828 11.3738 8.48828 11.5058C8.48828 11.6378 8.51442 11.7685 8.56519 11.8904C8.61596 12.0122 8.69035 12.1228 8.78408 12.2158L13.7841 17.2158C13.877 17.3095 13.9876 17.3839 14.1095 17.4347C14.2314 17.4855 14.3621 17.5116 14.4941 17.5116C14.6261 17.5116 14.7568 17.4855 14.8787 17.4347C15.0005 17.3839 15.1111 17.3095 15.2041 17.2158C15.2978 17.1228 15.3722 17.0122 15.423 16.8904C15.4737 16.7685 15.4999 16.6378 15.4999 16.5058C15.4999 16.3738 15.4737 16.2431 15.423 16.1212C15.3722 15.9994 15.2978 15.8888 15.2041 15.7958L10.9041 11.5058L15.2041 7.2158C15.2978 7.12284 15.3722 7.01223 15.423 6.89038C15.4737 6.76852 15.4999 6.63781 15.4999 6.5058C15.4999 6.37379 15.4737 6.24308 15.423 6.12122C15.3722 5.99936 15.2978 5.88876 15.2041 5.7958Z" fill="currentColor"/>
</svg>
