<svg width="24" height="24" viewBox="0 0 24 24" fill="currentColor" xmlns="http://www.w3.org/2000/svg">
  <path opacity="0.75" d="M6.2958 9.2842C6.20207 9.37716 6.12768 9.48777 6.07691 9.60962C6.02614 9.73148 6 9.86219 6 9.9942C6 10.1262 6.02614 10.2569 6.07691 10.3788C6.12768 10.5006 6.20207 10.6112 6.2958 10.7042L11.2958 15.7042C11.3888 15.7979 11.4994 15.8723 11.6212 15.9231C11.7431 15.9739 11.8738 16 12.0058 16C12.1378 16 12.2685 15.9739 12.3904 15.9231C12.5122 15.8723 12.6228 15.7979 12.7158 15.7042L17.7158 10.7042C17.8095 10.6112 17.8839 10.5006 17.9347 10.3788C17.9855 10.2569 18.0116 10.1262 18.0116 9.9942C18.0116 9.86219 17.9855 9.73148 17.9347 9.60963C17.8839 9.48777 17.8095 9.37716 17.7158 9.2842C17.6228 9.19047 17.5122 9.11608 17.3904 9.06531C17.2685 9.01454 17.1378 8.9884 17.0058 8.9884C16.8738 8.9884 16.7431 9.01454 16.6212 9.06531C16.4994 9.11608 16.3888 9.19047 16.2958 9.2842L12.0058 13.5842L7.7158 9.2842C7.62284 9.19047 7.51223 9.11608 7.39038 9.06531C7.26852 9.01454 7.13781 8.9884 7.0058 8.9884C6.87379 8.9884 6.74308 9.01454 6.62122 9.06531C6.49936 9.11608 6.38876 9.19047 6.2958 9.2842Z" fill="currentColor"/>
</svg>
