<svg width="24" height="24" viewBox="0 0 24 24" fill="currentColor" xmlns="http://www.w3.org/2000/svg">
<path d="M17.2508 16.5019C17.1811 16.4316 17.0981 16.3758 17.0067 16.3377C16.9153 16.2996 16.8173 16.28 16.7183 16.28C16.6193 16.28 16.5213 16.2996 16.4299 16.3377C16.3385 16.3758 16.2555 16.4316 16.1858 16.5019L12.7358 19.9519L12.7358 2.29687C12.7358 2.09796 12.6568 1.9072 12.5161 1.76654C12.3755 1.62589 12.1847 1.54687 11.9858 1.54687C11.7869 1.54687 11.5961 1.62589 11.4555 1.76654C11.3148 1.9072 11.2358 2.09796 11.2358 2.29687L11.2358 19.9369L7.80831 16.5019C7.66779 16.3622 7.4777 16.2838 7.27956 16.2838C7.08142 16.2838 6.89133 16.3622 6.75081 16.5019C6.61112 16.6424 6.53271 16.8325 6.53271 17.0306C6.53271 17.2288 6.61112 17.4189 6.75081 17.5594L11.5208 22.3294C11.5824 22.3936 11.6563 22.4447 11.7382 22.4796C11.82 22.5145 11.9081 22.5324 11.9971 22.5324C12.086 22.5324 12.1741 22.5145 12.2559 22.4796C12.3378 22.4447 12.4117 22.3936 12.4733 22.3294L17.2508 17.5669C17.3211 17.4972 17.3769 17.4142 17.415 17.3228C17.4531 17.2314 17.4727 17.1334 17.4727 17.0344C17.4727 16.9354 17.4531 16.8373 17.415 16.7459C17.3769 16.6546 17.3211 16.5716 17.2508 16.5019Z" fill="currentColor"/>
</svg>
