<svg width="24" height="24" viewBox="0 0 24 24" fill="currentColor" xmlns="http://www.w3.org/2000/svg">
<path d="M6.28408 8.29592C6.19035 8.38888 6.11596 8.49948 6.06519 8.62134C6.01442 8.7432 5.98828 8.87391 5.98828 9.00592C5.98828 9.13793 6.01442 9.26864 6.06519 9.3905C6.11596 9.51236 6.19035 9.62296 6.28408 9.71592L11.2841 14.7159C11.377 14.8096 11.4876 14.884 11.6095 14.9348C11.7314 14.9856 11.8621 15.0117 11.9941 15.0117C12.1261 15.0117 12.2568 14.9856 12.3787 14.9348C12.5005 14.884 12.6111 14.8096 12.7041 14.7159L17.7041 9.71592C17.7978 9.62296 17.8722 9.51236 17.923 9.3905C17.9737 9.26864 17.9999 9.13793 17.9999 9.00592C17.9999 8.87391 17.9737 8.7432 17.923 8.62134C17.8722 8.49948 17.7978 8.38888 17.7041 8.29592C17.6111 8.20219 17.5005 8.1278 17.3787 8.07703C17.2568 8.02626 17.1261 8.00012 16.9941 8.00012C16.8621 8.00012 16.7314 8.02626 16.6095 8.07703C16.4876 8.1278 16.377 8.20219 16.2841 8.29592L11.9941 12.5959L7.70408 8.29592C7.61112 8.20219 7.50052 8.1278 7.37866 8.07703C7.2568 8.02626 7.12609 8.00012 6.99408 8.00012C6.86207 8.00012 6.73136 8.02626 6.6095 8.07703C6.48764 8.1278 6.37704 8.20219 6.28408 8.29592Z" fill="currentColor"/>
</svg>
