<svg viewBox="0 0 54 66" fill="none" xmlns="http://www.w3.org/2000/svg">
<path d="M33.126 41.1731C33.0884 40.7617 33.0609 40.1009 33.0391 39.4157C39.3317 38.7779 43.7459 37.2842 43.7459 35.5441C43.7285 35.5412 43.73 35.4724 43.73 35.4437C39.0261 31.2481 47.8082 1.43128 31.4591 2.03619C30.4323 1.17613 28.6351 0.412109 26.0572 0.412109C3.91237 2.07059 13.7038 30.2275 8.65821 35.5426C8.65532 35.5441 8.64808 35.5441 8.64808 35.5441L8.64952 35.5527L8.64808 35.5555L8.65097 35.557C8.67125 37.2613 12.9363 38.7277 19.0464 39.3814C19.029 39.797 18.9928 40.3116 18.9131 41.1731C16.3758 47.9246 1.18917 41.9975 0.398438 55.0188C5.19844 60.8047 17.1984 65.5106 26.0442 65.5106C35.5984 65.5106 47.5984 61.589 53.1984 53.5256C52.4092 40.5043 35.6633 47.9246 33.126 41.1731Z" fill="white"/>
</svg>
