<svg width="24" height="24" viewBox="0 0 24 24" fill="currentColor" xmlns="http://www.w3.org/2000/svg">
<circle cx="12" cy="12" r="12" fill="currentColor"/>
<path d="M17.9005 12.7947C16.7221 12.443 15.3654 11.9724 14.0866 10.8906L12.9766 12.0007L18.9543 17.9782C19.9423 16.832 20.6 15.4993 20.9275 14.1048C20.9253 14.1027 20.9231 14.1006 20.9209 14.0985C20.9184 14.096 20.9157 14.0935 20.9132 14.0908C20.6014 13.779 20.1994 13.5526 19.6862 13.3539C19.2868 13.1993 18.8598 13.075 18.379 12.9352C18.2253 12.8904 18.0661 12.8441 17.9005 12.7947Z" fill="#FE4E16"/>
<path d="M17.9754 5.04876L14.0838 8.94036C13.2402 7.90883 12.8469 6.80333 12.52 5.70829C12.478 5.56738 12.4363 5.42402 12.3944 5.27965C12.2508 4.78564 12.1038 4.27975 11.9256 3.81951C11.797 3.48733 11.6454 3.15894 11.4531 2.84812C13.763 2.7115 16.1148 3.44505 17.9754 5.04876Z" fill="#FE4E16"/>
<path d="M18.9539 6.02344L15.0625 9.91493C16.0937 10.7579 17.1988 11.151 18.2935 11.4778C18.4343 11.5198 18.5775 11.5614 18.7217 11.6034C19.2157 11.7469 19.722 11.894 20.1822 12.0721C20.5147 12.2009 20.8435 12.3527 21.1545 12.5452C21.2911 10.2355 20.5576 7.88387 18.9539 6.02344Z" fill="#FE4E16"/>
<path d="M9.91027 3.09159L9.89716 3.07812C8.50254 3.40561 7.16975 4.06342 6.02344 5.05156L12.0014 11.0292L13.1114 9.91921C12.0289 8.64006 11.5582 7.28299 11.2064 6.10414C11.157 5.93866 11.1107 5.77953 11.0659 5.62592C10.9261 5.14508 10.8018 4.71791 10.6472 4.31852C10.4485 3.80525 10.2221 3.40336 9.91027 3.09159Z" fill="#FE4E16"/>
<path d="M2.95312 10.5229C3.21635 8.90305 3.91541 7.34023 5.0503 6.02344L11.0282 12.001L10.0302 12.999C8.67894 11.9052 7.10429 11.518 5.75668 11.247C5.56643 11.2088 5.38292 11.1732 5.20554 11.1389C4.6492 11.0312 4.15311 10.9351 3.69849 10.8032C3.41091 10.7198 3.16388 10.6281 2.95312 10.5229Z" fill="#FE4E16"/>
<path d="M2.836 11.9648C2.82794 14.1081 3.56682 16.2536 5.05263 17.9774L9.05329 13.9767C8.00713 13.1763 6.76432 12.8504 5.48767 12.5938C5.32429 12.5609 5.15812 12.5288 4.99097 12.4964C4.4203 12.3861 3.83827 12.2736 3.31749 12.1226C3.15614 12.0758 2.99498 12.0239 2.836 11.9648Z" fill="#FE4E16"/>
<path d="M10.027 14.9453L6.02344 18.9489C7.79595 20.4767 10.0143 21.2147 12.2176 21.163C12.0791 20.8866 11.9709 20.5984 11.8809 20.3089C11.7288 19.8199 11.6153 19.2777 11.505 18.7502C11.4727 18.5965 11.4408 18.444 11.4083 18.2944C11.1542 17.1262 10.8315 15.973 10.027 14.9453Z" fill="#FE4E16"/>
<path d="M13.7397 21.002C15.2673 20.7089 16.7348 20.0249 17.9817 18.9502L12.0039 12.9727L11.0078 13.9688C12.0922 15.2881 12.4817 16.7487 12.7546 18.0035C12.7932 18.1808 12.829 18.3512 12.8634 18.5155C12.9709 19.0282 13.0659 19.4814 13.1967 19.9019C13.3403 20.3636 13.5104 20.7236 13.7397 21.002Z" fill="#FE4E16"/>
</svg>
