<svg width="24" height="24" viewBox="0 0 24 24" fill="currentColor" xmlns="http://www.w3.org/2000/svg">
<path fill-rule="evenodd" clip-rule="evenodd" d="M17.4879 9.34939C16.2074 9.34939 15.0016 9.84355 14.2345 10.7594C14.0777 10.942 13.921 11.1348 13.6702 11.1348C13.3327 11.1348 13.0601 10.8524 13.0601 10.5135C13.0601 10.2067 13.2965 9.99738 13.5832 9.90205C15.3077 9.30514 16.5088 7.58301 16.5088 5.63458C16.5088 3.12815 14.4853 1.08203 12.0013 1.08203C9.51739 1.08203 7.48889 3.12815 7.48889 5.63458C7.48889 7.67834 8.83201 9.41027 10.6653 9.98728C10.7423 10.0116 11.0269 10.1675 11.0269 10.5622C11.0269 10.9031 10.7497 11.1787 10.4142 11.1787C10.3804 11.1787 10.1151 11.1666 9.97783 10.9934C9.14338 9.99233 7.90112 9.34939 6.50744 9.34939C4.0282 9.34939 2 11.3979 2 13.9043C2 16.4108 4.0282 18.4616 6.50744 18.4616C8.23426 18.4616 9.6691 17.5755 10.4192 16.1453C11.0534 15.0393 11.4177 15.9531 11.1572 17.5799C10.9981 18.5932 10.7905 19.4336 9.51739 22.7487H14.4853C13.1904 19.5503 12.8502 18.7052 12.6908 17.5387C12.4906 16.1233 12.8355 14.92 13.5805 16.1696C14.3547 17.5336 15.821 18.4616 17.4876 18.4616C19.9762 18.4616 22 16.4108 22 13.9043C22 11.3979 19.9765 9.34939 17.4879 9.34939Z" fill="currentColor"/>
</svg>
