<svg viewBox="0 0 55 59" fill="none" xmlns="http://www.w3.org/2000/svg">
<path fill-rule="evenodd" clip-rule="evenodd" d="M42.5969 22.5127C39.0751 22.5127 35.7587 23.8583 33.6489 26.3522C33.2179 26.8496 32.7869 27.3744 32.0971 27.3744C31.1687 27.3744 30.4191 26.6054 30.4191 25.6827C30.4191 24.8473 31.0693 24.2772 31.8577 24.0176C36.6006 22.3922 39.904 17.7027 39.904 12.397C39.904 5.57175 34.3387 0 27.507 0C20.6754 0 15.0963 5.57175 15.0963 12.397C15.0963 17.9622 18.7903 22.6784 23.8324 24.2497C24.0443 24.316 24.8271 24.7406 24.8271 25.8153C24.8271 26.7436 24.0645 27.4941 23.1418 27.4941C23.0488 27.4941 22.3194 27.4609 21.9417 26.9895C19.6467 24.2634 16.2301 22.5127 12.397 22.5127C5.57824 22.5127 0 28.0909 0 34.9161C0 41.7413 5.57824 47.326 12.397 47.326C17.1463 47.326 21.0926 44.9129 23.1556 41.0183C24.8999 38.0068 25.9018 40.4951 25.1853 44.925C24.7478 47.6842 24.1769 49.9728 20.6754 59H34.3387C30.7773 50.2906 29.8417 47.9891 29.4034 44.8127C28.8527 40.9585 29.8013 37.6818 31.8504 41.0847C33.9797 44.7989 38.0125 47.326 42.5961 47.326C49.4407 47.326 55.0068 41.7413 55.0068 34.9161C55.0068 28.0909 49.4415 22.5127 42.5969 22.5127Z" fill="#FF066F"/>
</svg>
