<svg width="24" height="24" viewBox="0 0 24 24" fill="currentColor" xmlns="http://www.w3.org/2000/svg">
<path d="M21 11.998C20.7348 11.998 20.4804 12.1033 20.2929 12.2909C20.1054 12.4784 20 12.7328 20 12.998V18.998C20 19.2632 19.8946 19.5176 19.7071 19.7051C19.5196 19.8926 19.2652 19.998 19 19.998H5C4.73478 19.998 4.48043 19.8926 4.29289 19.7051C4.10536 19.5176 4 19.2632 4 18.998V4.99799C4 4.73277 4.10536 4.47842 4.29289 4.29088C4.48043 4.10334 4.73478 3.99799 5 3.99799H11C11.2652 3.99799 11.5196 3.89263 11.7071 3.70509C11.8946 3.51756 12 3.2632 12 2.99799C12 2.73277 11.8946 2.47842 11.7071 2.29088C11.5196 2.10334 11.2652 1.99799 11 1.99799H5C4.20435 1.99799 3.44129 2.31406 2.87868 2.87667C2.31607 3.43927 2 4.20234 2 4.99799V18.998C2 19.7936 2.31607 20.5567 2.87868 21.1193C3.44129 21.6819 4.20435 21.998 5 21.998H19C19.7956 21.998 20.5587 21.6819 21.1213 21.1193C21.6839 20.5567 22 19.7936 22 18.998V12.998C22 12.7328 21.8946 12.4784 21.7071 12.2909C21.5196 12.1033 21.2652 11.998 21 11.998ZM6 12.758V16.998C6 17.2632 6.10536 17.5176 6.29289 17.7051C6.48043 17.8926 6.73478 17.998 7 17.998H11.24C11.3716 17.9987 11.5021 17.9735 11.6239 17.9238C11.7457 17.874 11.8566 17.8007 11.95 17.708L18.87 10.778L21.71 7.99799C21.8037 7.90502 21.8781 7.79442 21.9289 7.67256C21.9797 7.5507 22.0058 7.42 22.0058 7.28799C22.0058 7.15597 21.9797 7.02527 21.9289 6.90341C21.8781 6.78155 21.8037 6.67095 21.71 6.57799L17.47 2.28799C17.377 2.19426 17.2664 2.11986 17.1446 2.06909C17.0227 2.01833 16.892 1.99219 16.76 1.99219C16.628 1.99219 16.4973 2.01833 16.3754 2.06909C16.2536 2.11986 16.143 2.19426 16.05 2.28799L13.23 5.11799L6.29 12.048C6.19732 12.1414 6.12399 12.2522 6.07423 12.3741C6.02446 12.4959 5.99924 12.6264 6 12.758ZM16.76 4.40799L19.59 7.23799L18.17 8.65799L15.34 5.82799L16.76 4.40799ZM8 13.168L13.93 7.23799L16.76 10.068L10.83 15.998H8V13.168Z" fill="currentColor"/>
</svg>
