<svg width="12" height="12" viewBox="0 0 12 12" fill="currentColor" xmlns="http://www.w3.org/2000/svg">
<path d="M11.6569 10.2426L7.41421 5.99999L11.6569 1.75735C11.8444 1.56981 11.9497 1.31546 11.9497 1.05024C11.9497 0.785024 11.8444 0.53067 11.6569 0.343133C11.4693 0.155597 11.215 0.0502404 10.9497 0.0502405C10.6845 0.0502406 10.4302 0.155597 10.2426 0.343133L6 4.58577L1.75736 0.343133C1.56982 0.155597 1.31547 0.0502406 1.05025 0.0502405C0.785036 0.0502404 0.530682 0.155597 0.343146 0.343133C0.155609 0.53067 0.0502528 0.785024 0.0502529 1.05024C0.050253 1.31546 0.155609 1.56981 0.343146 1.75735L4.58579 5.99999L0.343146 10.2426C0.155609 10.4302 0.0502522 10.6845 0.0502522 10.9497C0.0502522 11.215 0.15561 11.4693 0.343146 11.6568C0.530682 11.8444 0.785036 11.9497 1.05025 11.9497C1.31547 11.9497 1.56982 11.8444 1.75736 11.6568L6 7.4142L10.2426 11.6568C10.4302 11.8444 10.6845 11.9497 10.9497 11.9497C11.215 11.9497 11.4693 11.8444 11.6569 11.6568C11.8444 11.4693 11.9497 11.215 11.9497 10.9497C11.9497 10.6845 11.8444 10.4302 11.6569 10.2426Z" fill="currentColor"/>
</svg>
