<svg width="24" height="24" viewBox="0 0 24 24" fill="currentColor" xmlns="http://www.w3.org/2000/svg">
<path d="M1.49903 3.75001C1.40005 3.74963 1.30197 3.76885 1.21045 3.80655C1.11893 3.84425 1.03578 3.8997 0.965786 3.96969C0.895794 4.03968 0.840348 4.12284 0.802644 4.21436C0.764939 4.30588 0.745722 4.40395 0.746099 4.50294V9.00293V15V19.5C0.745722 19.599 0.764939 19.6971 0.802644 19.7886C0.840348 19.8801 0.895794 19.9633 0.965786 20.0332C1.03578 20.1032 1.11893 20.1587 1.21045 20.1964C1.30197 20.2341 1.40005 20.2533 1.49903 20.2529H22.499C22.6979 20.2521 22.8884 20.1724 23.0285 20.0312C23.1686 19.89 23.2469 19.6989 23.2461 19.5V15V9.00293V4.50294C23.2469 4.30403 23.1686 4.11296 23.0285 3.97177C22.8884 3.83057 22.6979 3.7508 22.499 3.75001H1.49903ZM2.2461 5.25001H11.249V8.32618C9.54193 8.67587 8.24756 10.1979 8.24756 12.0044C8.24756 13.8109 9.54193 15.3281 11.249 15.6768V18.7529H2.2461V15.7529H4.50049C4.6994 15.7521 4.88985 15.6724 5.02994 15.5312C5.17004 15.39 5.24832 15.1989 5.24756 15V9.00293C5.24832 8.80403 5.17004 8.61296 5.02994 8.47177C4.88985 8.33057 4.6994 8.2508 4.50049 8.25H2.2461V5.25001ZM12.749 5.25001H21.752V8.25H19.4976C19.2987 8.2508 19.1082 8.33057 18.9681 8.47177C18.828 8.61296 18.7497 8.80403 18.7505 9.00293V15C18.7497 15.1989 18.828 15.39 18.9681 15.5312C19.1082 15.6724 19.2987 15.7521 19.4976 15.7529H21.752V18.7529H12.749V15.6753C14.455 15.3249 15.7505 13.8093 15.7505 12.0044C15.7505 10.2 14.4543 8.6796 12.749 8.32764V5.25001ZM2.2461 9.75147H3.74756V14.2515H2.2461V9.75147ZM11.9961 9.75147C13.2476 9.75147 14.2505 10.7529 14.2505 12.0044C14.2505 13.2559 13.2476 14.2515 11.9961 14.2515C10.7446 14.2515 9.74903 13.2559 9.74903 12.0044C9.74903 10.7529 10.7446 9.75147 11.9961 9.75147ZM20.252 9.75147H21.752V14.2515H20.252V9.75147Z" fill="currentColor"/>
</svg>
