<svg width="24" height="24" viewBox="0 0 24 24" fill="currentColor" xmlns="http://www.w3.org/2000/svg">
<circle cx="12" cy="12" r="12" fill="currentColor"/>
<g clip-path="url(#clip0_1928_2482)">
<path d="M8.92344 11.1413L11.9984 8.91272L15.0734 11.1413L13.9056 14.7413H10.102L8.92344 11.1413ZM11.9984 2.39844C13.2984 2.39844 14.5413 2.65201 15.727 3.15915C16.9127 3.66629 17.9342 4.34844 18.7913 5.20558C19.6484 6.06272 20.3306 7.08415 20.8377 8.26987C21.3449 9.45558 21.5984 10.6984 21.5984 11.9984C21.5984 13.2984 21.3449 14.5413 20.8377 15.727C20.3306 16.9127 19.6484 17.9342 18.7913 18.7913C17.9342 19.6484 16.9127 20.3306 15.727 20.8377C14.5413 21.3449 13.2984 21.5984 11.9984 21.5984C10.6984 21.5984 9.45558 21.3449 8.26987 20.8377C7.08415 20.3306 6.06272 19.6484 5.20558 18.7913C4.34844 17.9342 3.66629 16.9127 3.15915 15.727C2.65201 14.5413 2.39844 13.2984 2.39844 11.9984C2.39844 10.6984 2.65201 9.45558 3.15915 8.26987C3.66629 7.08415 4.34844 6.06272 5.20558 5.20558C6.06272 4.34844 7.08415 3.66629 8.26987 3.15915C9.45558 2.65201 10.6984 2.39844 11.9984 2.39844ZM18.6306 16.8627C19.6949 15.4127 20.227 13.7913 20.227 11.9984V11.9663L19.1342 12.9199L16.5627 10.5199L17.2377 7.05915L18.6734 7.18772C17.602 5.71629 16.2127 4.70915 14.5056 4.16629L15.0734 5.49487L11.9984 7.19844L8.92344 5.49487L9.49129 4.16629C7.78415 4.70915 6.39487 5.71629 5.32344 7.18772L6.76987 7.05915L7.43415 10.5199L4.86272 12.9199L3.76987 11.9663V11.9984C3.76987 13.7913 4.30201 15.4127 5.36629 16.8627L5.68772 15.4484L9.18058 15.877L10.6699 19.0699L9.42701 19.8092C10.2627 20.0877 11.1199 20.227 11.9984 20.227C12.877 20.227 13.7342 20.0877 14.5699 19.8092L13.327 19.0699L14.8163 15.877L18.3092 15.4484L18.6306 16.8627Z" fill="#212121"/>
</g>
<defs>
<clipPath id="clip0_1928_2482">
<rect width="19.2" height="19.2" fill="currentColor" transform="translate(2.39844 2.39844)"/>
</clipPath>
</defs>
</svg>
