<svg viewBox="0 0 24 24" fill="currentColor" xmlns="http://www.w3.org/2000/svg">
<path d="M11.9336 7.07031C8.97065 7.07031 6.51562 9.48301 6.51562 12.4883C6.51562 15.4936 8.92832 17.9063 11.9336 17.9063C14.9389 17.9063 17.3516 15.4513 17.3516 12.4883C17.3516 9.52534 14.8966 7.07031 11.9336 7.07031ZM11.9336 15.9592C10.0289 15.9592 8.46272 14.3931 8.46272 12.4883C8.46272 10.5835 10.0289 9.0174 11.9336 9.0174C13.8384 9.0174 15.4045 10.5835 15.4045 12.4883C15.4045 14.3931 13.8384 15.9592 11.9336 15.9592Z" fill="currentColor"/>
<path d="M17.5674 8.16596C18.2453 8.16596 18.7949 7.61639 18.7949 6.93845C18.7949 6.26051 18.2453 5.71094 17.5674 5.71094C16.8894 5.71094 16.3398 6.26051 16.3398 6.93845C16.3398 7.61639 16.8894 8.16596 17.5674 8.16596Z" fill="currentColor"/>
<path d="M20.7391 3.7667C19.6386 2.62384 18.0724 2.03125 16.2946 2.03125H7.57507C3.89253 2.03125 1.4375 4.48628 1.4375 8.16882V16.8461C1.4375 18.6662 2.03009 20.2323 3.21528 21.3752C4.35813 22.4757 5.88194 23.026 7.61739 23.026H16.2523C18.0724 23.026 19.5962 22.4334 20.6968 21.3752C21.8396 20.2746 22.4322 18.7085 22.4322 16.8884V8.16882C22.4322 6.39104 21.8396 4.86723 20.7391 3.7667ZM20.5698 16.8884C20.5698 18.2006 20.1042 19.2588 19.3423 19.9783C18.5804 20.6979 17.5222 21.0789 16.2523 21.0789H7.61739C6.34755 21.0789 5.28935 20.6979 4.52745 19.9783C3.76554 19.2164 3.38459 18.1582 3.38459 16.8461V8.16882C3.38459 6.89897 3.76554 5.84077 4.52745 5.07887C5.24702 4.35929 6.34755 3.97834 7.61739 3.97834H16.337C17.6068 3.97834 18.665 4.35929 19.4269 5.1212C20.1465 5.8831 20.5698 6.9413 20.5698 8.16882V16.8884Z" fill="currentColor"/>
</svg>
