<svg viewBox="0 0 24 24" fill="currentColor" xmlns="http://www.w3.org/2000/svg">
<path d="M21.0039 2H3.00391C2.73869 2 2.48434 2.10536 2.2968 2.29289C2.10926 2.48043 2.00391 2.73478 2.00391 3V21C2.00391 21.2652 2.10926 21.5196 2.2968 21.7071C2.48434 21.8946 2.73869 22 3.00391 22H21.0039C21.2691 22 21.5235 21.8946 21.711 21.7071C21.8986 21.5196 22.0039 21.2652 22.0039 21V3C22.0039 2.73478 21.8986 2.48043 21.711 2.29289C21.5235 2.10536 21.2691 2 21.0039 2ZM8.00391 20H4.00391V4H8.00391V20ZM20.0039 20H10.0039V13H20.0039V20ZM20.0039 11H10.0039V4H20.0039V11Z" fill="currentColor"/>
</svg>
