<svg width="24" height="24" viewBox="0 0 24 24" fill="currentColor" xmlns="http://www.w3.org/2000/svg">
<path d="M22 18.003C22 18.5526 21.5544 18.9982 21.0048 18.9982H12.9952C12.4456 18.9982 12 18.5526 12 18.003C12 17.4534 12.4456 17.0078 12.9952 17.0078H21.0048C21.5544 17.0078 22 17.4534 22 18.003Z" fill="currentColor"/>
<path d="M22.0039 11.999C22.0039 12.5487 21.5583 12.9942 21.0087 12.9942H2.9991C2.44947 12.9942 2.00391 12.5487 2.00391 11.999C2.00391 11.4494 2.44947 11.0039 2.9991 11.0039H21.0087C21.5583 11.0039 22.0039 11.4494 22.0039 11.999Z" fill="currentColor"/>
<path d="M21.0087 6.99039C21.5583 6.99039 22.0039 6.54482 22.0039 5.99519C22.0039 5.44556 21.5583 5 21.0087 5H8.9991C8.44947 5 8.00391 5.44556 8.00391 5.99519C8.00391 6.54482 8.44947 6.99039 8.9991 6.99039H21.0087Z" fill="currentColor"/>
</svg>
