<svg viewBox="0 0 32 32" fill="currentColor" xmlns="http://www.w3.org/2000/svg">
<path d="M29.3333 24.0064C29.3333 24.7392 28.7392 25.3333 28.0064 25.3333H17.3269C16.5941 25.3333 16 24.7392 16 24.0064C16 23.2736 16.5941 22.6794 17.3269 22.6794H28.0064C28.7392 22.6794 29.3333 23.2736 29.3333 24.0064Z" />
<path d="M29.3385 15.9987C29.3385 16.7316 28.7444 17.3256 28.0116 17.3256H3.99879C3.26595 17.3256 2.67188 16.7316 2.67188 15.9987C2.67188 15.2659 3.26595 14.6719 3.99879 14.6719H28.0116C28.7444 14.6719 29.3385 15.2659 29.3385 15.9987Z" />
<path d="M28.0116 9.32182C28.7444 9.32182 29.3385 8.72773 29.3385 7.99489C29.3385 7.26205 28.7444 6.66797 28.0116 6.66797H11.9988C11.266 6.66797 10.6719 7.26205 10.6719 7.99489C10.6719 8.72773 11.266 9.32182 11.9988 9.32182H28.0116Z" />
</svg>
