<svg viewBox="0 0 24 24" fill="currentColor" xmlns="http://www.w3.org/2000/svg">
<path d="M21.0005 8.00024C20.997 7.617 20.8834 7.24284 20.6733 6.92229C20.4633 6.60174 20.1655 6.3483 19.8155 6.19213C19.4655 6.03596 19.078 5.98364 18.6992 6.0414C18.3203 6.09916 17.966 6.26456 17.6784 6.51792C17.3908 6.77128 17.1821 7.10192 17.0771 7.47051C16.9721 7.83909 16.9752 8.23009 17.086 8.59697C17.1969 8.96384 17.4108 9.29115 17.7023 9.53993C17.9939 9.78871 18.3507 9.94848 18.7305 10.0002C18.9406 10.5802 19.0289 11.1973 18.99 11.8129C18.9511 12.4285 18.7857 13.0296 18.5042 13.5784C18.2228 14.1273 17.8312 14.6124 17.354 15.0032C16.8767 15.3941 16.3241 15.6824 15.7305 15.8502C15.4667 15.2432 15.0097 14.7405 14.4305 14.4202C15.2593 13.3919 15.7803 12.1501 15.9333 10.8383C16.0863 9.52642 15.8651 8.19805 15.2951 7.0066C14.7252 5.81516 13.8298 4.80927 12.7124 4.10513C11.595 3.40099 10.3012 3.02734 8.98047 3.02734C7.65972 3.02734 6.36592 3.40099 5.24853 4.10513C4.13114 4.80927 3.23575 5.81516 2.6658 7.0066C2.09585 8.19805 1.8746 9.52642 2.0276 10.8383C2.18061 12.1501 2.70163 13.3919 3.53047 14.4202C3.07147 14.6782 2.68844 15.0524 2.41988 15.5053C2.15131 15.9582 2.00667 16.4738 2.00047 17.0002V18.0002C2.00047 18.7959 2.31654 19.5589 2.87915 20.1216C3.44176 20.6842 4.20482 21.0002 5.00047 21.0002H13.0005C13.7961 21.0002 14.5592 20.6842 15.1218 20.1216C15.6844 19.5589 16.0005 18.7959 16.0005 18.0002V17.8102C16.898 17.6006 17.7405 17.2016 18.4713 16.64C19.2022 16.0784 19.8046 15.3671 20.2383 14.5538C20.672 13.7404 20.9268 12.8438 20.9858 11.924C21.0448 11.0042 20.9066 10.0823 20.5805 9.22024C20.8514 8.87114 20.9991 8.44213 21.0005 8.00024ZM14.0005 18.0002C14.0005 18.2655 13.8951 18.5198 13.7076 18.7073C13.52 18.8949 13.2657 19.0002 13.0005 19.0002H5.00047C4.73526 19.0002 4.4809 18.8949 4.29337 18.7073C4.10583 18.5198 4.00047 18.2655 4.00047 18.0002V17.0002C4.00047 16.735 4.10583 16.4807 4.29337 16.2931C4.4809 16.1056 4.73526 16.0002 5.00047 16.0002H5.41047C6.49352 16.6549 7.73495 17.0009 9.00047 17.0009C10.266 17.0009 11.5074 16.6549 12.5905 16.0002H13.0005C13.2657 16.0002 13.52 16.1056 13.7076 16.2931C13.8951 16.4807 14.0005 16.735 14.0005 17.0002V18.0002ZM9.00047 15.0002C8.01157 15.0002 7.04487 14.707 6.22262 14.1576C5.40038 13.6082 4.75951 12.8273 4.38108 11.9137C4.00264 11 3.90362 9.99469 4.09655 9.02478C4.28947 8.05488 4.76568 7.16396 5.46494 6.4647C6.1642 5.76544 7.05512 5.28924 8.02502 5.09631C8.99493 4.90338 10.0003 5.0024 10.9139 5.38084C11.8275 5.75928 12.6084 6.40014 13.1578 7.22238C13.7072 8.04463 14.0005 9.01133 14.0005 10.0002C14.0005 10.6568 13.8711 11.307 13.6199 11.9137C13.3686 12.5203 13.0003 13.0715 12.536 13.5358C12.0717 14.0001 11.5205 14.3684 10.9139 14.6196C10.3073 14.8709 9.65708 15.0002 9.00047 15.0002ZM9.00047 9.00024C8.80269 9.00024 8.60935 9.05888 8.4449 9.16877C8.28045 9.27865 8.15228 9.43483 8.07659 9.61755C8.00091 9.80028 7.9811 10.0013 8.01969 10.1953C8.05827 10.3893 8.15351 10.5675 8.29337 10.7073C8.43322 10.8472 8.6114 10.9424 8.80538 10.981C8.99936 11.0196 9.20043 10.9998 9.38316 10.9241C9.56588 10.8484 9.72206 10.7203 9.83194 10.5558C9.94182 10.3914 10.0005 10.198 10.0005 10.0002C10.0005 9.73502 9.89512 9.48067 9.70758 9.29313C9.52004 9.10559 9.26569 9.00024 9.00047 9.00024Z" fill="currentColor"/>
</svg>
