<svg width="24" height="24" viewBox="0 0 24 24" fill="currentColor" xmlns="http://www.w3.org/2000/svg">
<path d="M22.5988 2.06253C22.5537 1.89126 22.4639 1.73502 22.3387 1.60977C22.2134 1.48453 22.0572 1.39477 21.8859 1.34964C19.8346 0.816833 17.6744 0.87422 15.6542 1.5152C13.634 2.15617 11.8359 3.35468 10.467 4.9727L9.35206 6.29653L6.74726 5.66805C6.114 5.44728 5.42224 5.46311 4.79974 5.7126C4.17724 5.9621 3.66604 6.42842 3.36054 7.02543L1.16035 10.9253C1.08326 11.0619 1.03939 11.2148 1.03228 11.3715C1.02517 11.5281 1.05502 11.6843 1.11943 11.8273C1.18384 11.9704 1.28099 12.0962 1.40303 12.1948C1.52507 12.2933 1.66859 12.3617 1.82197 12.3945L4.89472 13.0532C4.63443 13.8456 4.44857 14.6605 4.33955 15.4873C4.31979 15.6392 4.33518 15.7936 4.38453 15.9387C4.43388 16.0837 4.51589 16.2154 4.62421 16.3237L7.72431 19.4238C7.81713 19.5167 7.92734 19.5904 8.04865 19.6407C8.16997 19.691 8.29999 19.7168 8.43131 19.7168C8.46012 19.7168 8.48893 19.7154 8.51823 19.7129C9.36357 19.6369 10.1986 19.4727 11.0098 19.2229L11.6535 22.2261C11.6864 22.3794 11.7549 22.5229 11.8534 22.6449C11.952 22.7669 12.0778 22.864 12.2208 22.9284C12.3638 22.9928 12.5199 23.0227 12.6766 23.0156C12.8333 23.0085 12.9861 22.9647 13.1227 22.8877L17.028 20.6851C17.5776 20.3511 18.007 19.8512 18.2541 19.2574C18.5013 18.6636 18.5534 18.0067 18.403 17.3814L17.7343 14.6224L18.9714 13.4849C20.5954 12.1198 21.7985 10.3216 22.4407 8.29949C23.0829 6.27741 23.1377 4.11456 22.5988 2.06253ZM3.57002 10.7237L5.12617 7.96391C5.22283 7.77656 5.3875 7.63328 5.58642 7.56346C5.78535 7.49364 6.00344 7.50257 6.19599 7.58842L7.9134 8.00462L7.2634 8.77641C6.64716 9.51499 6.11417 10.3192 5.67408 11.1745L3.57002 10.7237ZM16.0402 18.9458L13.3244 20.4775L12.8949 18.4729C13.7655 18.0387 14.5767 17.4943 15.3083 16.853L16.0518 16.1694L16.4553 17.834C16.5076 18.0395 16.4959 18.2561 16.4217 18.4549C16.3475 18.6536 16.2144 18.8249 16.0402 18.9458ZM17.6545 11.9805L13.9699 15.3668C12.5115 16.628 10.7125 17.4297 8.79951 17.671L6.39521 15.2667C6.71813 13.3487 7.54692 11.5515 8.79609 10.0607L10.4744 8.06798C10.5024 8.03873 10.5285 8.00775 10.5526 7.97521L11.9875 6.27153C13.0485 5.01843 14.423 4.06934 15.9707 3.52118C17.5184 2.97301 19.1839 2.84542 20.7971 3.15141C21.1105 4.76963 20.9842 6.44228 20.4315 7.99514C19.8788 9.54799 18.9198 10.9242 17.6545 11.9805ZM16.7315 5.81677C16.4348 5.81677 16.1448 5.90475 15.8981 6.06957C15.6515 6.23439 15.4592 6.46866 15.3457 6.74275C15.2321 7.01684 15.2024 7.31844 15.2603 7.60941C15.3182 7.90038 15.4611 8.16766 15.6708 8.37743C15.8806 8.58721 16.1479 8.73007 16.4389 8.78795C16.7298 8.84583 17.0314 8.81613 17.3055 8.70259C17.5796 8.58906 17.8139 8.3968 17.9787 8.15013C18.1435 7.90346 18.2315 7.61345 18.2315 7.31677C18.2315 7.11978 18.1927 6.92472 18.1173 6.74272C18.042 6.56072 17.9315 6.39536 17.7922 6.25606C17.6529 6.11677 17.4875 6.00628 17.3055 5.9309C17.1235 5.85553 16.9285 5.81676 16.7315 5.81677Z" fill="currentColor"/>
</svg>
