<svg width="24" height="24" viewBox="0 0 24 24" fill="currentColor" xmlns="http://www.w3.org/2000/svg">
<circle cx="12" cy="12" r="12" fill="white"/>
<g clip-path="url(#clip0_1928_2506)">
<path d="M19.5303 4.47031C19.4581 4.39791 19.3718 4.34104 19.2768 4.30321C19.1818 4.26538 19.0801 4.24737 18.9778 4.25031C17.3653 4.30281 11.8278 4.75031 8.28534 8.28531C4.74284 11.8203 4.30284 17.3653 4.25034 18.9778C4.24733 19.0782 4.2645 19.1781 4.30084 19.2717C4.33718 19.3653 4.39195 19.4507 4.46189 19.5227C4.53184 19.5948 4.61554 19.6521 4.70803 19.6911C4.80052 19.7302 4.89992 19.7504 5.00034 19.7503H5.02534C6.63784 19.6978 12.1753 19.2503 15.7178 15.7153C19.2603 12.1803 19.6978 6.63531 19.7503 5.02281C19.7533 4.92058 19.7353 4.81884 19.6974 4.72382C19.6596 4.62881 19.6027 4.54254 19.5303 4.47031Z" fill="#E43056"/>
<path d="M14.2985 9.69895C14.2753 9.67552 14.2476 9.65692 14.2172 9.64423C14.1867 9.63153 14.154 9.625 14.121 9.625C14.088 9.625 14.0553 9.63153 14.0249 9.64423C13.9944 9.65692 13.9668 9.67552 13.9435 9.69895L13.061 10.5839L12.5285 10.0539C12.5061 10.0278 12.4785 10.0065 12.4475 9.99152C12.4165 9.97651 12.3827 9.96808 12.3483 9.96675C12.3139 9.96542 12.2795 9.97122 12.2474 9.98379C12.2154 9.99636 12.1862 10.0154 12.1619 10.0398C12.1375 10.0642 12.1184 10.0933 12.1059 10.1254C12.0933 10.1574 12.0875 10.1918 12.0888 10.2262C12.0902 10.2606 12.0986 10.2944 12.1136 10.3254C12.1286 10.3565 12.1499 10.384 12.176 10.4064L12.706 10.9364L11.9985 11.6464L11.4685 11.1139C11.4214 11.0669 11.3576 11.0404 11.291 11.0404C11.2244 11.0404 11.1606 11.0669 11.1135 11.1139C11.0664 11.161 11.04 11.2249 11.04 11.2914C11.04 11.358 11.0664 11.4219 11.1135 11.4689L11.646 11.9989L10.936 12.7064L10.406 12.1764C10.3836 12.1503 10.356 12.129 10.325 12.114C10.294 12.099 10.2602 12.0906 10.2258 12.0893C10.1914 12.0879 10.157 12.0937 10.1249 12.1063C10.0929 12.1189 10.0637 12.1379 10.0394 12.1623C10.015 12.1867 9.99593 12.2158 9.98336 12.2479C9.97079 12.28 9.96499 12.3143 9.96632 12.3487C9.96765 12.3831 9.97609 12.4169 9.99109 12.4479C10.0061 12.479 10.0274 12.5065 10.0535 12.5289L10.5835 13.0614L9.69852 13.9439C9.67521 13.9673 9.65672 13.9949 9.64411 14.0254C9.63149 14.0558 9.625 14.0885 9.625 14.1214C9.625 14.1544 9.63149 14.1871 9.64411 14.2175C9.65672 14.248 9.67521 14.2756 9.69852 14.2989C9.72183 14.3223 9.74951 14.3407 9.77996 14.3534C9.81042 14.366 9.84306 14.3725 9.87602 14.3725C9.90899 14.3725 9.94163 14.366 9.97208 14.3534C10.0025 14.3407 10.0302 14.3223 10.0535 14.2989L10.936 13.4139L11.4685 13.9439C11.4909 13.9701 11.5185 13.9914 11.5495 14.0064C11.5805 14.0214 11.6143 14.0298 11.6488 14.0311C11.6832 14.0325 11.7175 14.0267 11.7496 14.0141C11.7817 14.0015 11.8108 13.9825 11.8352 13.9581C11.8595 13.9337 11.8786 13.9046 11.8912 13.8725C11.9038 13.8404 11.9096 13.8061 11.9082 13.7717C11.9069 13.7373 11.8985 13.7035 11.8835 13.6725C11.8684 13.6414 11.8472 13.6139 11.821 13.5914L11.291 13.0614L11.9985 12.3514L12.5285 12.8839C12.5756 12.931 12.6394 12.9575 12.706 12.9575C12.7726 12.9575 12.8364 12.931 12.8835 12.8839C12.9306 12.8369 12.957 12.773 12.957 12.7064C12.957 12.6399 12.9306 12.576 12.8835 12.5289L12.351 11.9989L13.061 11.2914L13.591 11.8214C13.6134 11.8476 13.641 11.8689 13.672 11.8839C13.703 11.8989 13.7368 11.9073 13.7713 11.9086C13.8057 11.91 13.84 11.9042 13.8721 11.8916C13.9042 11.879 13.9333 11.86 13.9577 11.8356C13.982 11.8112 14.0011 11.7821 14.0137 11.75C14.0263 11.7179 14.0321 11.6836 14.0307 11.6492C14.0294 11.6148 14.021 11.581 14.006 11.55C13.9909 11.5189 13.9697 11.4914 13.9435 11.4689L13.4135 10.9364L14.2985 10.0539C14.322 10.0307 14.3406 10.0031 14.3532 9.97259C14.3659 9.94213 14.3725 9.90945 14.3725 9.87645C14.3725 9.84345 14.3659 9.81077 14.3532 9.78031C14.3406 9.74984 14.322 9.72219 14.2985 9.69895Z" fill="#EFF3FE"/>
<path d="M5.64344 12.3672C5.51594 12.6622 5.31594 13.1897 5.08594 13.9297L10.0859 18.9297C10.6134 18.7672 11.1284 18.5897 11.6509 18.3722L5.64344 12.3672Z" fill="#EFF3FE"/>
<path d="M13.9244 5.08203C13.3919 5.24703 12.8744 5.42453 12.3594 5.63953L18.3594 11.6395C18.5769 11.1195 18.7519 10.6045 18.9169 10.0745L13.9244 5.08203Z" fill="#EFF3FE"/>
</g>
<defs>
<clipPath id="clip0_1928_2506">
<rect width="16" height="16" fill="white" transform="translate(4 4)"/>
</clipPath>
</defs>
</svg>
