<svg width="24" height="24" viewBox="0 0 24 24" fill="currentColor" xmlns="http://www.w3.org/2000/svg">
<g clip-path="url(#clip0_1928_2401)">
<path d="M14.25 7.5C15.4926 7.5 16.5 6.49264 16.5 5.25C16.5 4.00736 15.4926 3 14.25 3C13.0074 3 12 4.00736 12 5.25C12 6.49264 13.0074 7.5 14.25 7.5Z" stroke="white" stroke-width="1.8" stroke-linecap="round" stroke-linejoin="round"/>
<path d="M4.5 10.2723C4.5 10.2723 7.5 7.49728 12 11.0223C16.7344 14.716 19.5 13.2723 19.5 13.2723" stroke="white" stroke-width="1.8" stroke-linecap="round" stroke-linejoin="round"/>
<path d="M10.3711 15.1094C12.0492 15.4656 16.5023 16.8719 16.5023 21.7469" stroke="white" stroke-width="1.8" stroke-linecap="round" stroke-linejoin="round"/>
<path d="M12.3469 11.2891C11.4187 14.0078 8.60625 19.3141 3 18.7516" stroke="white" stroke-width="1.8" stroke-linecap="round" stroke-linejoin="round"/>
</g>
<defs>
<clipPath id="clip0_1928_2401">
<rect width="24" height="24" fill="white"/>
</clipPath>
</defs>
</svg>
