<svg viewBox="0 0 24 24" fill="currentColor" xmlns="http://www.w3.org/2000/svg">
<path d="M21.7114 20.2875L18.0014 16.6075C19.4415 14.8119 20.1389 12.5328 19.9502 10.2388C19.7615 7.94476 18.701 5.81025 16.9869 4.27411C15.2727 2.73797 13.0352 1.91697 10.7343 1.97993C8.43341 2.04289 6.24409 2.98502 4.61651 4.6126C2.98893 6.24018 2.0468 8.4295 1.98384 10.7304C1.92088 13.0313 2.74188 15.2688 4.27801 16.983C5.81415 18.6971 7.94867 19.7576 10.2427 19.9463C12.5367 20.135 14.8158 19.4376 16.6114 17.9975L20.2914 21.6775C20.3843 21.7712 20.4949 21.8456 20.6168 21.8964C20.7386 21.9471 20.8694 21.9733 21.0014 21.9733C21.1334 21.9733 21.2641 21.9471 21.3859 21.8964C21.5078 21.8456 21.6184 21.7712 21.7114 21.6775C21.8916 21.491 21.9924 21.2418 21.9924 20.9825C21.9924 20.7231 21.8916 20.4739 21.7114 20.2875ZM11.0014 17.9975C9.6169 17.9975 8.26352 17.5869 7.11238 16.8178C5.96123 16.0486 5.06403 14.9553 4.53421 13.6762C4.0044 12.3972 3.86578 10.9897 4.13587 9.63183C4.40597 8.27396 5.07265 7.02668 6.05162 6.04772C7.03059 5.06875 8.27787 4.40206 9.63574 4.13197C10.9936 3.86187 12.4011 4.00049 13.6802 4.53031C14.9592 5.06012 16.0525 5.95733 16.8217 7.10847C17.5908 8.25962 18.0014 9.61299 18.0014 10.9975C18.0014 12.854 17.2639 14.6345 15.9511 15.9472C14.6384 17.26 12.8579 17.9975 11.0014 17.9975Z" fill="currentColor"/>
</svg>
