<svg width="24" height="24" viewBox="0 0 24 24" fill="currentColor" xmlns="http://www.w3.org/2000/svg">
<path d="M6.3439 4.93742C6.73442 5.32795 6.73442 5.96111 6.3439 6.35163C3.2187 9.47684 3.2187 14.5438 6.3439 17.669C6.73442 18.0595 6.73442 18.6927 6.3439 19.0832C5.95338 19.4737 5.32021 19.4737 4.92969 19.0832C1.02344 15.1769 1.02344 8.84367 4.92969 4.93742C5.32021 4.5469 5.95338 4.5469 6.3439 4.93742ZM19.0754 4.93742C22.9817 8.84367 22.9817 15.1769 19.0754 19.0832C18.6849 19.4737 18.0518 19.4737 17.6612 19.0832C17.2707 18.6927 17.2707 18.0595 17.6612 17.669C20.7864 14.5438 20.7864 9.47684 17.6612 6.35163C17.2707 5.96111 17.2707 5.32795 17.6612 4.93742C18.0518 4.5469 18.6849 4.5469 19.0754 4.93742ZM9.31055 7.8108C9.70107 8.20132 9.70107 8.83449 9.31055 9.22501C7.77959 10.756 7.77959 13.2381 9.31055 14.7691C9.70107 15.1596 9.70107 15.7928 9.31055 16.1833C8.92003 16.5738 8.28686 16.5738 7.89634 16.1833C5.58432 13.8713 5.58432 10.1228 7.89634 7.8108C8.28686 7.42027 8.92003 7.42027 9.31055 7.8108ZM16.2688 7.8108C18.5809 10.1228 18.5809 13.8713 16.2688 16.1833C15.8783 16.5738 15.2452 16.5738 14.8546 16.1833C14.4641 15.7928 14.4641 15.1596 14.8546 14.7691C16.3856 13.2381 16.3856 10.756 14.8546 9.22501C14.4641 8.83449 14.4641 8.20132 14.8546 7.8108C15.2452 7.42027 15.8783 7.42027 16.2688 7.8108ZM12.0826 10.5802C12.911 10.5802 13.5826 11.2518 13.5826 12.0802C13.5826 12.9086 12.911 13.5802 12.0826 13.5802C11.2542 13.5802 10.5826 12.9086 10.5826 12.0802C10.5826 11.2518 11.2542 10.5802 12.0826 10.5802Z" fill="currentColor"/>
</svg>
