<svg viewBox="0 0 43 50" fill="none" xmlns="http://www.w3.org/2000/svg">
<path fill-rule="evenodd" clip-rule="evenodd" d="M10.8128 40.023C14.8762 40.023 18.42 37.8674 20.2764 34.6898C20.3839 38.313 18.7136 43.573 15.8071 50H27.3476C24.5034 44.035 22.3136 38.5102 22.5223 34.6447C24.3678 37.8503 27.9287 40.023 32.0031 40.023C37.9626 40.023 42.8275 35.373 42.8275 29.6675C42.8275 26.1572 40.5987 23.2 38.3521 20.8692C30.5525 12.7706 25.1242 6.38802 21.4278 0C16.9695 8.09249 10.5191 14.2717 4.00106 20.8692C1.38822 23.5156 0 25.9142 0 29.6675C0.000684528 35.373 4.85946 40.023 10.8128 40.023Z" fill="#FF066F"/>
</svg>
