<svg viewBox="0 0 24 24" fill="currentColor" xmlns="http://www.w3.org/2000/svg">
  <path d="M22.0014 9.67161C21.9383 9.4887 21.8234 9.32804 21.6708 9.20911C21.5181 9.09019 21.3342 9.01811 21.1414 9.00161L15.4514 8.17161L12.9014 3.00161C12.8196 2.83254 12.6917 2.68995 12.5325 2.59018C12.3734 2.49041 12.1893 2.4375 12.0014 2.4375C11.8136 2.4375 11.6295 2.49041 11.4704 2.59018C11.3112 2.68995 11.1833 2.83254 11.1014 3.00161L8.55144 8.16161L2.86144 9.00161C2.67636 9.02792 2.50237 9.10557 2.35919 9.22577C2.21602 9.34596 2.1094 9.50388 2.05144 9.68161C1.99839 9.85528 1.99363 10.0401 2.03767 10.2163C2.08171 10.3925 2.1729 10.5533 2.30144 10.6816L6.43144 14.6816L5.43144 20.3616C5.39574 20.5491 5.41444 20.7429 5.48531 20.9201C5.55619 21.0973 5.6763 21.2505 5.83144 21.3616C5.98266 21.4697 6.16102 21.5335 6.34649 21.5459C6.53196 21.5583 6.71721 21.5187 6.88144 21.4316L12.0014 18.7616L17.1014 21.4416C17.2418 21.5208 17.4003 21.5621 17.5614 21.5616C17.7733 21.5624 17.9799 21.4958 18.1514 21.3716C18.3066 21.2605 18.4267 21.1073 18.4976 20.9301C18.5684 20.7529 18.5871 20.5591 18.5514 20.3716L17.5514 14.6916L21.6814 10.6916C21.8258 10.5693 21.9325 10.4085 21.9892 10.228C22.0458 10.0474 22.0501 9.85448 22.0014 9.67161ZM15.8514 13.6716C15.7342 13.785 15.6464 13.9255 15.5959 14.0806C15.5453 14.2357 15.5335 14.4009 15.5614 14.5616L16.2814 18.7516L12.5214 16.7516C12.3768 16.6746 12.2154 16.6343 12.0514 16.6343C11.8875 16.6343 11.7261 16.6746 11.5814 16.7516L7.82144 18.7516L8.54144 14.5616C8.56938 14.4009 8.55756 14.2357 8.50701 14.0806C8.45646 13.9255 8.36872 13.785 8.25144 13.6716L5.25144 10.6716L9.46144 10.0616C9.62344 10.0391 9.77744 9.97715 9.90994 9.88126C10.0424 9.78537 10.1494 9.65845 10.2214 9.51161L12.0014 5.70161L13.8814 9.52161C13.9535 9.66845 14.0604 9.79537 14.1929 9.89126C14.3254 9.98715 14.4794 10.0491 14.6414 10.0716L18.8514 10.6816L15.8514 13.6716Z" fill="currentColor"/>
</svg>
