<svg width="24" height="24" viewBox="0 0 24 24" fill="currentColor" xmlns="http://www.w3.org/2000/svg">
<path d="M12.0039 16C14.213 16 16.0039 14.2091 16.0039 12C16.0039 9.79086 14.213 8 12.0039 8C9.79477 8 8.00391 9.79086 8.00391 12C8.00391 14.2091 9.79477 16 12.0039 16Z" fill="currentColor"/>
<path d="M21.0039 11H19.9039C19.4039 7.4 16.6039 4.5 13.0039 4.1V3C13.0039 2.4 12.6039 2 12.0039 2C11.4039 2 11.0039 2.4 11.0039 3V4.1C7.40391 4.5 4.50391 7.4 4.10391 11H3.00391C2.40391 11 2.00391 11.4 2.00391 12C2.00391 12.6 2.40391 13 3.00391 13H4.10391C4.60391 16.6 7.40391 19.5 11.0039 19.9V21C11.0039 21.6 11.4039 22 12.0039 22C12.6039 22 13.0039 21.6 13.0039 21V19.9C16.6039 19.4 19.5039 16.6 19.9039 13H21.0039C21.6039 13 22.0039 12.6 22.0039 12C22.0039 11.4 21.6039 11 21.0039 11ZM17.9039 13C17.5039 15.5 15.5039 17.5 13.0039 17.9C13.0039 17.4 12.5039 17 12.0039 17C11.5039 17 11.1039 17.4 11.0039 17.9C8.50391 17.5 6.50391 15.5 6.10391 13C6.60391 13 7.00391 12.5 7.00391 12C7.00391 11.5 6.60391 11.1 6.10391 11C6.50391 8.5 8.50391 6.5 11.0039 6.1C11.0039 6.6 11.5039 7 12.0039 7C12.5039 7 12.9039 6.6 13.0039 6.1C15.5039 6.5 17.5039 8.5 17.9039 11C17.4039 11 17.0039 11.5 17.0039 12C17.0039 12.5 17.4039 12.9 17.9039 13Z" fill="currentColor"/>
</svg>
