<svg
  width="32"
  height="32"
  viewBox="0 0 32 32"
  fill="currentColor"
  xmlns="http://www.w3.org/2000/svg"
>
  <path
    d="M17.6004 4.8002C17.6004 3.91655 16.8841 3.2002 16.0004 3.2002C15.1167 3.2002 14.4004 3.91655 14.4004 4.8002V6.4002C14.4004 7.28384 15.1167 8.0002 16.0004 8.0002C16.8841 8.0002 17.6004 7.28384 17.6004 6.4002V4.8002Z"
    fill="currentColor"
  />
  <path
    d="M25.0512 9.21184C25.676 8.587 25.676 7.57394 25.0512 6.94909C24.4264 6.32426 23.4132 6.32426 22.7884 6.94909L21.6571 8.08047C21.0323 8.7053 21.0323 9.71837 21.6571 10.3432C22.2819 10.9681 23.295 10.9681 23.9198 10.3432L25.0512 9.21184Z"
    fill="currentColor"
  />
  <path
    d="M28.8 15.9999C28.8 16.8836 28.0837 17.5999 27.2 17.5999H25.6C24.7163 17.5999 24 16.8836 24 15.9999C24 15.1162 24.7163 14.3999 25.6 14.3999H27.2C28.0837 14.3999 28.8 15.1162 28.8 15.9999Z"
    fill="currentColor"
  />
  <path
    d="M8.08047 10.3432C8.7053 10.9681 9.71837 10.9681 10.3432 10.3432C10.9681 9.71837 10.9681 8.7053 10.3432 8.08047L9.21184 6.94909C8.587 6.32426 7.57394 6.32426 6.94909 6.94909C6.32426 7.57392 6.32426 8.587 6.94909 9.21183L8.08047 10.3432Z"
    fill="currentColor"
  />
  <path
    d="M8.0002 15.9999C8.0002 16.8836 7.28384 17.5999 6.4002 17.5999H4.8002C3.91655 17.5999 3.2002 16.8836 3.2002 15.9999C3.2002 15.1162 3.91655 14.3999 4.8002 14.3999H6.4002C7.28384 14.3999 8.0002 15.1162 8.0002 15.9999Z"
    fill="currentColor"
  />
  <path
    d="M12.7998 25.6V24H19.1998V25.6C19.1998 27.3674 17.7672 28.8 15.9998 28.8C14.2325 28.8 12.7998 27.3674 12.7998 25.6Z"
    fill="currentColor"
  />
  <path
    d="M19.201 22.4001C19.2244 21.8556 19.5318 21.366 19.9625 21.0259C21.447 19.8539 22.3996 18.0382 22.3996 16.0001C22.3996 12.4655 19.5342 9.6001 15.9996 9.6001C12.465 9.6001 9.59961 12.4655 9.59961 16.0001C9.59961 18.0382 10.5523 19.8539 12.0367 21.0259C12.4675 21.366 12.7748 21.8556 12.7982 22.4001H19.201Z"
    fill="currentColor"
  />
</svg>
