<svg viewBox="0 0 33 42" fill="none" xmlns="http://www.w3.org/2000/svg">
<path d="M20.4547 25.985C20.4312 25.7227 20.414 25.3015 20.4004 24.8647C24.3333 24.458 27.0922 23.5058 27.0922 22.3965C27.0813 22.3946 27.0822 22.3508 27.0822 22.3325C24.1423 19.6578 29.6311 0.649716 19.4129 1.03534C18.7712 0.487058 17.6479 0 16.0367 0C2.19621 1.05727 8.31588 19.0072 5.16236 22.3955C5.16055 22.3965 5.15602 22.3965 5.15602 22.3965L5.15693 22.4019L5.15602 22.4038L5.15783 22.4047C5.17051 23.4912 7.83615 24.426 11.6549 24.8427C11.6441 25.1077 11.6215 25.4358 11.5717 25.985C9.98586 30.289 0.494208 26.5105 0 34.8115C3 38.5 10.5 41.5 16.0286 41.5C22 41.5 29.5 39 33 33.8596C32.5067 25.5586 22.0406 30.289 20.4547 25.985Z" fill="white"/>
</svg>
