<svg width="24" height="24" viewBox="0 0 24 24" fill="currentColor" xmlns="http://www.w3.org/2000/svg">
<path d="M21.7903 11.3068C19.4331 7.77158 16.6156 4.5 12 4.5C7.38437 4.5 4.56692 7.77158 2.20967 11.3068C2.07295 11.5122 2 11.7535 2 12.0002C2 12.247 2.07295 12.4882 2.20967 12.6936C4.56692 16.2289 7.38437 19.5004 12 19.5004C16.6156 19.5004 19.4331 16.2289 21.7903 12.6936C21.927 12.4882 22 12.247 22 12.0002C22 11.7535 21.927 11.5122 21.7903 11.3068ZM12 17.0004C9.34733 17.0004 7.27696 15.5856 4.76346 12.0002C7.27696 8.41491 9.34733 7.00008 12 7.00008C14.6527 7.00008 16.723 8.41491 19.2365 12.0002C16.723 15.5856 14.6527 17.0004 12 17.0004Z" fill="currentColor"/>
<path d="M12 9.5C11.5055 9.5 11.0222 9.64662 10.6111 9.92133C10.2 10.196 9.87952 10.5865 9.6903 11.0433C9.50108 11.5001 9.45157 12.0028 9.54804 12.4877C9.6445 12.9727 9.8826 13.4181 10.2322 13.7678C10.5819 14.1174 11.0273 14.3555 11.5123 14.452C11.9972 14.5484 12.4999 14.4989 12.9567 14.3097C13.4135 14.1205 13.804 13.8 14.0787 13.3889C14.3534 12.9778 14.5 12.4944 14.5 12C14.4991 11.3372 14.2354 10.7019 13.7668 10.2332C13.2981 9.76456 12.6628 9.50089 12 9.5Z" fill="currentColor"/>
</svg>
