<svg width="24" height="24" viewBox="0 0 24 24" fill="currentColor" xmlns="http://www.w3.org/2000/svg">
<path d="M8.7842 17.2159C8.87716 17.3096 8.98777 17.384 9.10962 17.4348C9.23148 17.4856 9.36219 17.5117 9.4942 17.5117C9.62621 17.5117 9.75692 17.4856 9.87878 17.4348C10.0006 17.384 10.1112 17.3096 10.2042 17.2159L15.2042 12.2159C15.2979 12.123 15.3723 12.0124 15.4231 11.8905C15.4739 11.7686 15.5 11.6379 15.5 11.5059C15.5 11.3739 15.4739 11.2432 15.4231 11.1213C15.3723 10.9995 15.2979 10.8889 15.2042 10.7959L10.2042 5.79592C10.1112 5.70219 10.0006 5.6278 9.87878 5.57703C9.75692 5.52626 9.62621 5.50012 9.4942 5.50012C9.36219 5.50012 9.23148 5.52626 9.10963 5.57703C8.98777 5.6278 8.87717 5.70219 8.7842 5.79592C8.69047 5.88888 8.61608 5.99948 8.56531 6.12134C8.51454 6.2432 8.4884 6.37391 8.4884 6.50592C8.4884 6.63793 8.51454 6.76864 8.56531 6.8905C8.61608 7.01236 8.69047 7.12296 8.7842 7.21592L13.0842 11.5059L8.7842 15.7959C8.69047 15.8889 8.61608 15.9995 8.56531 16.1213C8.51454 16.2432 8.4884 16.3739 8.4884 16.5059C8.4884 16.6379 8.51454 16.7686 8.56531 16.8905C8.61608 17.0124 8.69047 17.123 8.7842 17.2159Z" fill="currentColor"/>
</svg>
