<svg width="24" height="24" viewBox="0 0 24 24" fill="currentColor" xmlns="http://www.w3.org/2000/svg">
<path d="M6.74919 7.50203C6.81891 7.57233 6.90186 7.62812 6.99326 7.6662C7.08465 7.70428 7.18268 7.72388 7.28169 7.72388C7.3807 7.72388 7.47873 7.70428 7.57012 7.6662C7.66152 7.62812 7.74447 7.57233 7.81419 7.50203L11.2642 4.05203L11.2642 21.707C11.2642 21.9059 11.3432 22.0967 11.4839 22.2374C11.6245 22.378 11.8153 22.457 12.0142 22.457C12.2131 22.457 12.4039 22.378 12.5445 22.2374C12.6852 22.0967 12.7642 21.9059 12.7642 21.707L12.7642 4.06703L16.1917 7.50203C16.3322 7.64172 16.5223 7.72013 16.7204 7.72013C16.9186 7.72013 17.1087 7.64172 17.2492 7.50203C17.3889 7.36151 17.4673 7.17142 17.4673 6.97328C17.4673 6.77514 17.3889 6.58505 17.2492 6.44453L12.4792 1.67453C12.4176 1.61033 12.3437 1.55925 12.2618 1.52435C12.18 1.48945 12.0919 1.47146 12.0029 1.47146C11.914 1.47146 11.8259 1.48945 11.7441 1.52435C11.6622 1.55925 11.5883 1.61033 11.5267 1.67453L6.74919 6.43703C6.6789 6.50675 6.6231 6.58971 6.58502 6.6811C6.54695 6.77249 6.52734 6.87052 6.52734 6.96953C6.52734 7.06854 6.54695 7.16657 6.58502 7.25796C6.6231 7.34936 6.6789 7.43231 6.74919 7.50203Z" fill="currentColor"/>
</svg>
