<svg width="24" height="24" viewBox="0 0 24 24" fill="currentColor" xmlns="http://www.w3.org/2000/svg">
<path d="M17.7042 14.7158C17.7979 14.6228 17.8723 14.5122 17.9231 14.3904C17.9739 14.2685 18 14.1378 18 14.0058C18 13.8738 17.9739 13.7431 17.9231 13.6212C17.8723 13.4994 17.7979 13.3888 17.7042 13.2958L12.7042 8.2958C12.6112 8.20207 12.5006 8.12768 12.3788 8.07691C12.2569 8.02614 12.1262 8 11.9942 8C11.8622 8 11.7315 8.02614 11.6096 8.07691C11.4878 8.12768 11.3772 8.20207 11.2842 8.2958L6.2842 13.2958C6.19047 13.3888 6.11608 13.4994 6.06531 13.6212C6.01454 13.7431 5.9884 13.8738 5.9884 14.0058C5.9884 14.1378 6.01454 14.2685 6.06531 14.3904C6.11608 14.5122 6.19047 14.6228 6.2842 14.7158C6.37717 14.8095 6.48777 14.8839 6.60962 14.9347C6.73148 14.9855 6.86219 15.0116 6.9942 15.0116C7.12621 15.0116 7.25692 14.9855 7.37878 14.9347C7.50064 14.8839 7.61124 14.8095 7.7042 14.7158L11.9942 10.4158L16.2842 14.7158C16.3772 14.8095 16.4878 14.8839 16.6096 14.9347C16.7315 14.9855 16.8622 15.0116 16.9942 15.0116C17.1262 15.0116 17.2569 14.9855 17.3788 14.9347C17.5006 14.8839 17.6112 14.8095 17.7042 14.7158Z" fill="currentColor"/>
</svg>
