<svg width="24" height="24" viewBox="0 0 24 24" fill="currentColor" xmlns="http://www.w3.org/2000/svg">
<path d="M13.4181 3.49064C13.4181 2.66739 12.7783 2 11.9894 2C11.2005 2 10.5608 2.66739 10.5608 3.49064V10.8402L3.87051 8.57206C3.12012 8.31767 2.31413 8.74614 2.07032 9.52911C1.82647 10.3121 2.23716 11.153 2.98757 11.4074L9.6873 13.6787L5.54101 19.6331C5.07724 20.2991 5.21876 21.2313 5.85708 21.7152C6.49543 22.1991 7.38885 22.0515 7.85262 21.3855L11.9943 15.4375L16.1362 21.3855C16.6 22.0515 17.4935 22.1991 18.1318 21.7152C18.7701 21.2313 18.9116 20.2991 18.4478 19.6331L14.3036 13.6818L21.0125 11.4074C21.7629 11.153 22.1735 10.3121 21.9297 9.52911C21.686 8.74614 20.88 8.31767 20.1296 8.57206L13.4181 10.8473V3.49064Z" fill="currentColor"/>
</svg>
