<svg width="24" height="24" viewBox="0 0 24 24" fill="currentColor" xmlns="http://www.w3.org/2000/svg">
<path d="M9.11719 11.1964L12 9.10714L14.8828 11.1964L13.7879 14.5714H10.2221L9.11719 11.1964ZM12 3C13.2188 3 14.3839 3.23772 15.4955 3.71317C16.6071 4.18862 17.5647 4.82812 18.3683 5.6317C19.1719 6.43527 19.8114 7.39286 20.2868 8.50446C20.7623 9.61607 21 10.7812 21 12C21 13.2188 20.7623 14.3839 20.2868 15.4955C19.8114 16.6071 19.1719 17.5647 18.3683 18.3683C17.5647 19.1719 16.6071 19.8114 15.4955 20.2868C14.3839 20.7623 13.2188 21 12 21C10.7812 21 9.61607 20.7623 8.50446 20.2868C7.39286 19.8114 6.43527 19.1719 5.6317 18.3683C4.82812 17.5647 4.18862 16.6071 3.71317 15.4955C3.23772 14.3839 3 13.2188 3 12C3 10.7812 3.23772 9.61607 3.71317 8.50446C4.18862 7.39286 4.82812 6.43527 5.6317 5.6317C6.43527 4.82812 7.39286 4.18862 8.50446 3.71317C9.61607 3.23772 10.7812 3 12 3ZM18.2176 16.5603C19.2154 15.2009 19.7143 13.6808 19.7143 12V11.9699L18.6897 12.8638L16.279 10.6138L16.9118 7.36942L18.2578 7.48996C17.2533 6.11049 15.9509 5.16629 14.3504 4.65737L14.8828 5.9029L12 7.5L9.11719 5.9029L9.64955 4.65737C8.04911 5.16629 6.74665 6.11049 5.74219 7.48996L7.09821 7.36942L7.72098 10.6138L5.31027 12.8638L4.28571 11.9699V12C4.28571 13.6808 4.7846 15.2009 5.78237 16.5603L6.08371 15.2344L9.35826 15.6362L10.7545 18.6295L9.58929 19.3225C10.3728 19.5837 11.1763 19.7143 12 19.7143C12.8237 19.7143 13.6272 19.5837 14.4107 19.3225L13.2455 18.6295L14.6417 15.6362L17.9163 15.2344L18.2176 16.5603Z" fill="currentColor"/>
</svg>
