<svg width="24" height="24" viewBox="0 0 24 24" fill="currentColor" xmlns="http://www.w3.org/2000/svg">
<g clip-path="url(#clip0_1928_2461)">
<path d="M9.1451 16.9943L19.385 16.9943C19.5352 16.995 19.6841 16.9658 19.8231 16.9086C19.962 16.8514 20.0883 16.7672 20.1945 16.661C20.3008 16.5547 20.3849 16.4285 20.4421 16.2895C20.4994 16.1506 20.5285 16.0017 20.5279 15.8514C20.527 15.5507 20.4071 15.2626 20.1945 15.05C19.9819 14.8373 19.6937 14.7175 19.393 14.7166L10.2799 14.7166L10.2799 5.6035C10.279 5.3028 10.1592 5.01466 9.94656 4.80203C9.73393 4.5894 9.4458 4.46955 9.1451 4.46866C8.99529 4.46927 8.84709 4.49944 8.70897 4.55745C8.57086 4.61546 8.44555 4.70016 8.34024 4.8067C8.2337 4.91201 8.149 5.03731 8.091 5.17543C8.03299 5.31354 8.00281 5.46175 8.0022 5.61155L8.0022 15.8514C8.00158 16.0017 8.03073 16.1506 8.08794 16.2895C8.14516 16.4285 8.22932 16.5547 8.33557 16.661C8.44182 16.7672 8.56806 16.8514 8.707 16.9086C8.84594 16.9658 8.99484 16.995 9.1451 16.9943Z" fill="white"/>
<mask id="path-2-inside-1_1928_2461" fill="white">
<path d="M17.2118 16.5239C17.2118 15.3281 16.9763 14.144 16.5187 13.0392C16.061 11.9344 15.3903 10.9306 14.5447 10.085C13.6992 9.23946 12.6954 8.56873 11.5906 8.11111C10.4858 7.6535 9.30171 7.41797 8.1059 7.41797V9.43369C9.037 9.43369 9.95898 9.61708 10.8192 9.9734C11.6794 10.3297 12.461 10.852 13.1194 11.5104C13.7778 12.1687 14.3001 12.9504 14.6564 13.8106C15.0127 14.6708 15.1961 15.5928 15.1961 16.5239H17.2118Z"/>
</mask>
<path d="M17.2118 16.5239C17.2118 15.3281 16.9763 14.144 16.5187 13.0392C16.061 11.9344 15.3903 10.9306 14.5447 10.085C13.6992 9.23946 12.6954 8.56873 11.5906 8.11111C10.4858 7.6535 9.30171 7.41797 8.1059 7.41797V9.43369C9.037 9.43369 9.95898 9.61708 10.8192 9.9734C11.6794 10.3297 12.461 10.852 13.1194 11.5104C13.7778 12.1687 14.3001 12.9504 14.6564 13.8106C15.0127 14.6708 15.1961 15.5928 15.1961 16.5239H17.2118Z" stroke="white" stroke-width="4" mask="url(#path-2-inside-1_1928_2461)"/>
</g>
<defs>
<clipPath id="clip0_1928_2461">
<rect width="24" height="24" fill="white"/>
</clipPath>
</defs>
</svg>
