<svg width="24" height="24" viewBox="0 0 24 24" fill="currentColor" xmlns="http://www.w3.org/2000/svg">
<path d="M11.571 11.3602L8.02695 7.81617C7.8045 7.59372 7.50279 7.46875 7.1882 7.46875C6.8736 7.46875 6.57189 7.59372 6.34944 7.81617C6.12699 8.03863 6.00202 8.34033 6.00202 8.65493C6.00202 8.96952 6.12699 9.27123 6.34944 9.49368L9.06653 12.199L6.34944 14.9042C6.23871 15.0141 6.15083 15.1447 6.09085 15.2887C6.03088 15.4326 6 15.587 6 15.743C6 15.899 6.03088 16.0534 6.09085 16.1973C6.15083 16.3413 6.23871 16.4719 6.34944 16.5818C6.45926 16.6925 6.58992 16.7804 6.73388 16.8403C6.87784 16.9003 7.03224 16.9312 7.1882 16.9312C7.34415 16.9312 7.49856 16.9003 7.64251 16.8403C7.78647 16.7804 7.91713 16.6925 8.02695 16.5818L11.571 13.0377C11.6849 12.9311 11.7765 12.8029 11.8405 12.6606C11.9046 12.5183 11.9399 12.3648 11.9443 12.2088C11.9486 12.0528 11.9221 11.8976 11.8661 11.7519C11.8102 11.6062 11.7259 11.4731 11.6182 11.3602H11.571Z" fill="currentColor"/>
<path d="M18.651 11.3583L13.6421 6.34944C13.5323 6.23871 13.4017 6.15083 13.2577 6.09085C13.1137 6.03088 12.9593 6 12.8034 6C12.6474 6 12.493 6.03088 12.3491 6.09085C12.2051 6.15083 12.0744 6.23871 11.9646 6.34944C11.7446 6.57078 11.6211 6.87019 11.6211 7.18229C11.6211 7.49438 11.7446 7.7938 11.9646 8.01514L16.1466 12.1971L11.9646 16.3791C11.7446 16.6004 11.6211 16.8998 11.6211 17.2119C11.6211 17.524 11.7446 17.8234 11.9646 18.0448C12.075 18.1542 12.2059 18.2409 12.3498 18.2997C12.4938 18.3584 12.6479 18.3882 12.8034 18.3873C12.9588 18.3882 13.113 18.3584 13.2569 18.2997C13.4008 18.2409 13.5317 18.1542 13.6421 18.0448L18.651 13.0359C18.7618 12.926 18.8496 12.7954 18.9096 12.6514C18.9696 12.5075 19.0005 12.3531 19.0005 12.1971C19.0005 12.0411 18.9696 11.8867 18.9096 11.7428C18.8496 11.5988 18.7618 11.4682 18.651 11.3583Z" fill="currentColor"/>
</svg>
