<svg width="16" height="16" viewBox="0 0 16 16" fill="currentColor" xmlns="http://www.w3.org/2000/svg">
<g clip-path="url(#clip0_2016_30161)">
<path d="M15.8323 7.44524C13.9465 4.61702 11.6925 1.99976 8 1.99976C4.3075 1.99976 2.05354 4.61702 0.167738 7.44524C0.0583584 7.60956 0 7.80255 0 7.99994C0 8.19733 0.0583584 8.39032 0.167738 8.55464C2.05354 11.3829 4.3075 14.0001 8 14.0001C11.6925 14.0001 13.9465 11.3829 15.8323 8.55464C15.9417 8.39032 16 8.19733 16 7.99994C16 7.80255 15.9417 7.60956 15.8323 7.44524ZM8 12.0001C5.87787 12.0001 4.22157 10.8683 2.21077 7.99994C4.22157 5.13169 5.87787 3.99982 8 3.99982C10.1221 3.99982 11.7784 5.13169 13.7892 7.99994C11.7784 10.8683 10.1221 12.0001 8 12.0001Z" fill="current"/>
<path d="M8 6C7.60444 6 7.21776 6.1173 6.88886 6.33706C6.55996 6.55682 6.30362 6.86918 6.15224 7.23463C6.00087 7.60009 5.96126 8.00222 6.03843 8.39018C6.1156 8.77814 6.30608 9.13451 6.58579 9.41421C6.86549 9.69392 7.22186 9.8844 7.60982 9.96157C7.99778 10.0387 8.39992 9.99913 8.76537 9.84776C9.13082 9.69638 9.44318 9.44004 9.66294 9.11114C9.8827 8.78224 10 8.39556 10 8C9.99929 7.46978 9.78835 6.96149 9.41343 6.58657C9.03851 6.21165 8.53022 6.00071 8 6Z" fill="current"/>
</g>
<defs>
<clipPath id="clip0_2016_30161">
<rect width="16" height="16" fill="currentColor"/>
</clipPath>
</defs>
</svg>
