<svg width="16" height="16" viewBox="0 0 16 16" fill="currentColor" xmlns="http://www.w3.org/2000/svg">
<g clip-path="url(#clip0_2016_30166)">
<path d="M13.7067 3.70768C13.8001 3.61497 13.8743 3.50472 13.9251 3.38325C13.9758 3.26179 14.0021 3.1315 14.0023 2.99987C14.0026 2.86823 13.9769 2.73784 13.9266 2.61618C13.8763 2.49451 13.8026 2.38397 13.7095 2.29089C13.6164 2.19781 13.5059 2.12403 13.3842 2.07377C13.2625 2.02352 13.1321 1.99779 13.0005 1.99805C12.8689 1.99831 12.7386 2.02456 12.6171 2.0753C12.4957 2.12604 12.3854 2.20026 12.2927 2.29371L11.5758 3.01058C10.4995 2.35134 9.26216 2.00191 8 2.00074C4.30687 2.00074 2.0531 4.61778 0.16845 7.44574C0.0586264 7.60987 0 7.80291 0 8.00039C0 8.19788 0.0586264 8.39091 0.16845 8.55504C0.922049 9.72708 1.80605 10.8099 2.80353 11.7829L2.29333 12.2931C2.19988 12.3858 2.12566 12.496 2.07492 12.6175C2.02419 12.739 1.99793 12.8692 1.99767 13.0009C1.99741 13.1325 2.02314 13.2629 2.0734 13.3846C2.12365 13.5062 2.19743 13.6168 2.29051 13.7099C2.38359 13.8029 2.49414 13.8767 2.6158 13.927C2.73747 13.9772 2.86786 14.003 2.99949 14.0027C3.13113 14.0024 3.26141 13.9762 3.38288 13.9255C3.50434 13.8747 3.61459 13.8005 3.7073 13.707L13.7067 3.70768ZM2.21128 8.00038C4.22093 5.13239 5.87903 4.00063 8 4.00063C8.73053 3.99892 9.45216 4.16083 10.1119 4.47448L8.51315 6.07324C8.34634 6.02515 8.17361 6.00067 8 6.00049C7.46976 6.00102 6.96139 6.21189 6.58645 6.58683C6.21151 6.96176 6.00064 7.47014 6.00012 8.00038C6.0003 8.17398 6.02478 8.34671 6.07287 8.51353L4.2169 10.3695C3.46645 9.65294 2.79415 8.85879 2.21128 8.00038Z" fill="current"/>
<path d="M15.8327 7.4463C15.4288 6.84025 15.0025 6.25045 14.5542 5.6875L13.1298 7.11185C13.3466 7.38967 13.5654 7.68065 13.7898 8.00095C11.8638 10.7497 10.2562 11.8913 8.25904 11.9826L6.42969 13.812C6.94482 13.9333 7.47191 13.9966 8.00112 14.0006C11.6943 14.0006 13.948 11.3836 15.8327 8.55558C15.9425 8.39146 16.0011 8.19842 16.0011 8.00094C16.0011 7.80346 15.9425 7.61043 15.8327 7.4463Z" fill="current"/>
</g>
<defs>
<clipPath id="clip0_2016_30166">
<rect width="16" height="16" fill="currentColor"/>
</clipPath>
</defs>
</svg>
