<svg width="24" height="24" viewBox="0 0 24 24" fill="currentColor" xmlns="http://www.w3.org/2000/svg">
<g clip-path="url(#clip0_1928_2338)">
<path d="M18.0984 7.43539C21.4465 9.36839 22.5936 13.6495 20.6606 16.9976C18.7679 20.2759 14.6238 21.444 11.3088 19.6765L11.0984 19.5598L5.90593 16.5619C2.55787 14.6289 1.41075 10.3477 3.34375 6.99968C5.23647 3.72138 9.38052 2.55325 12.6955 4.32069L12.9059 4.4375L18.0984 7.43539ZM17.3484 8.73443L12.1559 5.73654C9.52531 4.21775 6.16157 5.11907 4.64279 7.74968C3.16104 10.3161 3.98281 13.5804 6.46655 15.1484L6.65593 15.2628L11.8484 18.2607C14.479 19.7795 17.8428 18.8782 19.3616 16.2476C20.8433 13.6811 20.0216 10.4169 17.5378 8.84882L17.3484 8.73443ZM10.0381 7.40054C10.3968 7.60765 10.5197 8.06634 10.3126 8.42506L9.56282 9.72193L10.8623 10.473C11.221 10.6801 11.3439 11.1388 11.1368 11.4975C10.9296 11.8563 10.471 11.9791 10.1123 11.772L8.81282 11.021L8.06258 12.3222C7.85548 12.6809 7.39678 12.8038 7.03807 12.5967C6.67935 12.3896 6.55645 11.9309 6.76355 11.5722L7.51378 10.271L6.21516 9.52201C5.85644 9.31491 5.73349 8.85629 5.94064 8.49749C6.14774 8.13878 6.60644 8.01587 6.96516 8.22297L8.26378 8.97193L9.01355 7.67506C9.22065 7.31634 9.67935 7.19344 10.0381 7.40054ZM14.1337 13.8066C14.7316 14.1518 14.9365 14.9163 14.5913 15.5142C14.2461 16.1121 13.4816 16.3168 12.8837 15.9717C12.2858 15.6265 12.081 14.8621 12.4262 14.2642C12.7714 13.6663 13.5358 13.4614 14.1337 13.8066ZM17.6158 11.7755C18.2136 12.1207 18.4185 12.8852 18.0733 13.4831C17.7281 14.081 16.9636 14.2858 16.3658 13.9406C15.7679 13.5954 15.5631 12.831 15.9083 12.2331C16.2534 11.6352 17.0179 11.4303 17.6158 11.7755Z" fill="currentColor"/>
</g>
<defs>
<clipPath id="clip0_1928_2338">
<rect width="24" height="24" fill="currentColor"/>
</clipPath>
</defs>
</svg>
