<svg width="24" height="24" viewBox="0 0 24 24" fill="currentColor" xmlns="http://www.w3.org/2000/svg">
<path d="M13.8903 10.8912C13.7126 10.714 13.5015 10.5734 13.2693 10.4774C13.0371 10.3815 12.7881 10.3321 12.5367 10.3321C12.2853 10.3321 12.0364 10.3815 11.8041 10.4774C11.5719 10.5734 11.3609 10.714 11.1832 10.8912L10.7139 11.359L10.2447 10.8912C10.0669 10.7139 9.85581 10.5733 9.62349 10.4774C9.39117 10.3814 9.14216 10.332 8.89069 10.332C8.63922 10.332 8.39022 10.3814 8.15789 10.4774C7.92557 10.5733 7.71449 10.7139 7.5367 10.8912C7.17802 11.2493 6.97656 11.7346 6.97656 12.2405C6.97656 12.7465 7.17802 13.2318 7.5367 13.5898L10.7068 16.75L10.7139 16.7429L10.7211 16.75L13.8903 13.5898C14.0681 13.4127 14.2091 13.2023 14.3054 12.9708C14.4016 12.7393 14.4512 12.4911 14.4512 12.2405C14.4512 11.9899 14.4016 11.7418 14.3054 11.5103C14.2091 11.2787 14.0681 11.0684 13.8903 10.8912Z" fill="white"/>
<path d="M15.4302 5.14062H5.99607C4.89367 5.14062 4 6.0315 4 7.13045V20.0076C4 21.1066 4.89367 21.9974 5.99607 21.9974H15.4302C16.5326 21.9974 17.4262 21.1066 17.4262 20.0076V7.13045C17.4262 6.0315 16.5326 5.14062 15.4302 5.14062Z" stroke="white" stroke-width="1.5" stroke-linecap="round" stroke-linejoin="round"/>
<path d="M17.4236 19.3329L17.8436 19.3562C18.3717 19.3849 18.8896 19.2037 19.2838 18.8522C19.678 18.5008 19.9162 18.0078 19.9463 17.4815L20.6627 4.62665C20.6915 4.10016 20.5097 3.58375 20.1572 3.19066C19.8047 2.79757 19.3102 2.55988 18.7821 2.5297L9.35608 2.00301C8.82797 1.97403 8.3099 2.15517 7.91567 2.50666C7.52143 2.85816 7.28325 3.35126 7.25344 3.87768L7.18359 5.13727" stroke="white" stroke-width="1.5" stroke-linecap="round" stroke-linejoin="round"/>
</svg>
