<svg width="24" height="24" viewBox="0 0 24 24" fill="currentColor" xmlns="http://www.w3.org/2000/svg">
<path d="M19.1353 6.63338C19.2521 6.51748 19.3449 6.37965 19.4083 6.2278C19.4718 6.07596 19.5046 5.91308 19.5049 5.74852C19.5053 5.58395 19.4731 5.42095 19.4103 5.26885C19.3474 5.11675 19.2552 4.97855 19.1388 4.86219C19.0225 4.74583 18.8843 4.65359 18.7322 4.59076C18.5801 4.52794 18.4171 4.49577 18.2525 4.4961C18.0879 4.49642 17.9251 4.52924 17.7732 4.59267C17.6214 4.6561 17.4835 4.74889 17.3676 4.86572L16.4715 5.7619C15.1259 4.93776 13.579 4.50092 12.0012 4.49946C7.3842 4.49946 4.56667 7.77113 2.21059 11.3065C2.07329 11.5117 2 11.753 2 11.9999C2 12.2468 2.07329 12.4881 2.21059 12.6933C3.15269 14.1585 4.25782 15.5122 5.50482 16.7285L4.867 17.3664C4.75017 17.4823 4.65738 17.6201 4.59395 17.7719C4.53052 17.9238 4.4977 18.0867 4.49738 18.2512C4.49705 18.4158 4.52922 18.5788 4.59205 18.7309C4.65487 18.883 4.74711 19.0212 4.86347 19.1375C4.97984 19.2539 5.11803 19.3462 5.27013 19.409C5.42223 19.4718 5.58523 19.504 5.7498 19.5036C5.91436 19.5033 6.07724 19.4705 6.22908 19.4071C6.38093 19.3436 6.51876 19.2508 6.63466 19.134L19.1353 6.63338ZM4.76442 11.9999C7.27677 8.41448 9.34964 6.99961 12.0012 6.99961C12.9144 6.99747 13.8166 7.19988 14.6414 7.59199L12.6427 9.59068C12.4341 9.53056 12.2182 9.49994 12.0012 9.49973C11.3383 9.50039 10.7027 9.764 10.234 10.2327C9.76528 10.7015 9.50167 11.337 9.50101 11.9999C9.50124 12.2169 9.53185 12.4328 9.59196 12.6414L7.27173 14.9616C6.33356 14.0658 5.49309 13.073 4.76442 11.9999Z" fill="currentColor"/>
<path d="M21.7902 11.3081C21.2853 10.5505 20.7524 9.81314 20.192 9.10938L18.4113 10.89C18.6823 11.2373 18.9558 11.6011 19.2364 12.0015C16.8286 15.4378 14.8189 16.8651 12.3221 16.9792L10.0352 19.2662C10.6791 19.4178 11.3381 19.4969 11.9997 19.5019C16.6166 19.5019 19.4342 16.2303 21.7902 12.6949C21.9275 12.4897 22.0008 12.2484 22.0008 12.0015C22.0008 11.7546 21.9275 11.5133 21.7902 11.3081Z" fill="currentColor"/>
</svg>
