<svg width="24" height="24" viewBox="0 0 24 24" fill="currentColor" xmlns="http://www.w3.org/2000/svg">
<path d="M13.1969 3.59844C13.1969 2.9357 12.6596 2.39844 11.9969 2.39844C11.3341 2.39844 10.7969 2.9357 10.7969 3.59844V4.79844C10.7969 5.46117 11.3341 5.99844 11.9969 5.99844C12.6596 5.99844 13.1969 5.46117 13.1969 4.79844V3.59844Z" fill="currentColor"/>
<path d="M18.7876 6.90791C19.2562 6.43927 19.2562 5.67948 18.7876 5.21084C18.319 4.74222 17.5592 4.74222 17.0906 5.21084L16.2421 6.05937C15.7735 6.528 15.7735 7.2878 16.2421 7.75643C16.7107 8.22506 17.4705 8.22506 17.9391 7.75643L18.7876 6.90791Z" fill="currentColor"/>
<path d="M21.6 12.0008C21.6 12.6635 21.0628 13.2008 20.4 13.2008H19.2C18.5372 13.2008 18 12.6635 18 12.0008C18 11.338 18.5372 10.8008 19.2 10.8008H20.4C21.0628 10.8008 21.6 11.338 21.6 12.0008Z" fill="currentColor"/>
<path d="M6.05937 7.75643C6.528 8.22506 7.2878 8.22506 7.75643 7.75643C8.22506 7.2878 8.22506 6.528 7.75643 6.05937L6.90791 5.21084C6.43927 4.74222 5.67948 4.74222 5.21084 5.21084C4.74222 5.67947 4.74222 6.43927 5.21084 6.90789L6.05937 7.75643Z" fill="currentColor"/>
<path d="M6.00234 12.0008C6.00234 12.6635 5.46508 13.2008 4.80234 13.2008H3.60234C2.93961 13.2008 2.40234 12.6635 2.40234 12.0008C2.40234 11.338 2.93961 10.8008 3.60234 10.8008H4.80234C5.46508 10.8008 6.00234 11.338 6.00234 12.0008Z" fill="currentColor"/>
<path d="M9.59766 19.2V18H14.3977V19.2C14.3977 20.5255 13.3232 21.6 11.9977 21.6C10.6722 21.6 9.59766 20.5255 9.59766 19.2Z" fill="currentColor"/>
<path d="M14.4042 16.7992C14.4217 16.3909 14.6522 16.0237 14.9753 15.7685C16.0886 14.8895 16.8031 13.5278 16.8031 11.9992C16.8031 9.34825 14.654 7.19922 12.0031 7.19922C9.35216 7.19922 7.20312 9.34825 7.20312 11.9992C7.20312 13.5278 7.91767 14.8895 9.03095 15.7685C9.35402 16.0237 9.58454 16.3909 9.60206 16.7992H14.4042Z" fill="currentColor"/>
</svg>
