<svg width="24" height="24" viewBox="0 0 24 24" fill="currentColor" xmlns="http://www.w3.org/2000/svg">
<path d="M21.1518 2.8583C20.7697 2.46886 20.2852 2.19552 19.7543 2.06988C19.2234 1.94423 18.6678 1.97142 18.1518 2.1483L4.00176 6.8783C3.43107 7.0651 2.93245 7.42445 2.57471 7.90674C2.21698 8.38902 2.01777 8.97047 2.0046 9.5708C1.99143 10.1711 2.16495 10.7608 2.50119 11.2583C2.83743 11.7558 3.31981 12.1367 3.88176 12.3483L9.12176 14.3483C9.24108 14.3939 9.34972 14.4636 9.4409 14.5531C9.53209 14.6426 9.60387 14.7499 9.65176 14.8683L11.6518 20.1183C11.8553 20.6723 12.2248 21.15 12.7097 21.4865C13.1947 21.8229 13.7716 22.0016 14.3618 21.9983H14.4318C15.0328 21.9874 15.6153 21.7886 16.0977 21.43C16.5801 21.0713 16.9382 20.5707 17.1218 19.9983L21.8518 5.8283C22.0238 5.31724 22.0494 4.76824 21.9257 4.24339C21.802 3.71853 21.5339 3.23875 21.1518 2.8583ZM20.0018 5.1983L15.2218 19.3783C15.1663 19.5578 15.0548 19.7148 14.9036 19.8263C14.7525 19.9379 14.5696 19.9981 14.3818 19.9983C14.195 20.0014 14.0118 19.9475 13.8564 19.8439C13.7009 19.7403 13.5808 19.5919 13.5118 19.4183L11.5118 14.1683C11.3668 13.7868 11.1431 13.4401 10.8554 13.1507C10.5677 12.8613 10.2224 12.6356 9.84176 12.4883L4.59176 10.4883C4.41465 10.4234 4.26241 10.3045 4.15654 10.1484C4.05067 9.99228 3.99653 9.80685 4.00176 9.6183C4.00191 9.43045 4.06217 9.24757 4.17373 9.09643C4.28529 8.94528 4.44229 8.8338 4.62176 8.7783L18.8018 4.0483C18.9646 3.98195 19.1431 3.96417 19.3158 3.99713C19.4885 4.03008 19.6479 4.11235 19.7749 4.23399C19.9018 4.35563 19.9908 4.51143 20.031 4.68256C20.0713 4.85369 20.0611 5.03282 20.0018 5.1983Z" fill="currentColor"/>
</svg>
