<svg width="24" height="24" viewBox="0 0 24 24" fill="currentColor" xmlns="http://www.w3.org/2000/svg">
<path fill-rule="evenodd" clip-rule="evenodd" d="M7.54452 18.7603C9.25231 18.7603 10.7417 17.7903 11.522 16.3604C11.5672 17.9909 10.8652 20.3578 9.64359 23.25H14.4939C13.2985 20.5658 12.3782 18.0796 12.4659 16.3401C13.2416 17.7826 14.7382 18.7603 16.4506 18.7603C18.9553 18.7603 21 16.6678 21 14.1004C21 12.5207 20.0632 11.19 19.119 10.1411C15.841 6.49675 13.5595 3.62461 12.0059 0.75C10.1321 4.39162 7.4211 7.17228 4.68161 10.1411C3.58346 11.332 3 12.4114 3 14.1004C3.00029 16.6678 5.04239 18.7603 7.54452 18.7603Z" fill="currentColor"/>
</svg>
