<svg width="24" height="24" viewBox="0 0 24 24" fill="none" xmlns="http://www.w3.org/2000/svg">
<circle cx="12" cy="12" r="12" fill="white"/>
<g clip-path="url(#clip0_1928_2497)">
<path d="M12 21C16.9706 21 21 16.9706 21 12C21 7.02944 16.9706 3 12 3C7.02944 3 3 7.02944 3 12C3 16.9706 7.02944 21 12 21Z" fill="#33E037"/>
<path d="M15.0953 8.90469C16.7266 10.5359 18.8078 11.3797 20.9453 11.4922C20.8891 10.9297 20.8328 10.3672 20.6641 9.80469C19.0328 9.63594 17.5141 8.96094 16.2766 7.72344C15.0391 6.48594 14.3641 4.91094 14.1953 3.33594C13.6328 3.16719 13.0703 3.11094 12.5078 3.05469C12.6203 5.13594 13.4641 7.27344 15.0953 8.90469Z" fill="#E6E6E6"/>
<path d="M3.28125 14.1953C4.9125 14.3641 6.43125 15.0391 7.66875 16.2766C8.90625 17.5141 9.58125 19.0891 9.75 20.6641C10.3125 20.8328 10.875 20.8891 11.4375 20.9453C11.325 18.8078 10.4812 16.7266 8.85 15.0953C7.275 13.4641 5.1375 12.6203 3 12.5078C3.05625 13.0703 3.16875 13.6328 3.28125 14.1953Z" fill="#E6E6E6"/>
</g>
<defs>
<clipPath id="clip0_1928_2497">
<rect width="18" height="18" fill="white" transform="translate(3 3)"/>
</clipPath>
</defs>
</svg>
