<svg viewBox="0 0 53 66" fill="none" xmlns="http://www.w3.org/2000/svg">
<path d="M32.7504 38.8011C32.5506 36.5781 32.6273 35.0267 32.6273 32.9954C33.6262 32.4673 35.4161 29.0998 35.7185 26.2549C36.504 26.1901 37.7424 25.4178 38.1051 22.3688C38.3007 20.732 37.5235 19.8108 37.05 19.5212C38.3281 15.6476 40.9828 3.66402 32.1401 2.42567C31.2301 0.814992 28.8997 0 25.8714 0C13.7554 0.224778 12.2939 9.22003 14.95 19.5212C14.4779 19.8108 13.7006 20.732 13.8949 22.3688C14.2589 25.4178 15.496 26.1901 16.2815 26.2549C16.5825 29.0984 18.4436 32.4673 19.4453 32.9954C19.4453 35.0267 19.5205 36.5781 19.3207 38.8011C16.9233 45.2962 1.24716 41.9731 0.5 54.5C0.5 54.5 7 66 26.75 66C46.5 66 53 53.5 53 53.5C52.2542 40.9731 35.1479 45.2962 32.7504 38.8011Z" fill="white"/>
</svg>
