<svg width="24" height="24" viewBox="0 0 24 24" fill="currentColor" xmlns="http://www.w3.org/2000/svg">
<path d="M17.6569 16.2438L13.4142 12.0012L17.6569 7.75857C17.8444 7.57103 17.9497 7.31668 17.9497 7.05146C17.9497 6.78624 17.8444 6.53189 17.6569 6.34435C17.4693 6.15682 17.215 6.05146 16.9497 6.05146C16.6845 6.05146 16.4302 6.15682 16.2426 6.34435L12 10.587L7.75736 6.34435C7.56982 6.15682 7.31547 6.05146 7.05025 6.05146C6.78504 6.05146 6.53068 6.15682 6.34315 6.34435C6.15561 6.53189 6.05025 6.78624 6.05025 7.05146C6.05025 7.31668 6.15561 7.57103 6.34315 7.75857L10.5858 12.0012L6.34315 16.2438C6.15561 16.4314 6.05025 16.6857 6.05025 16.951C6.05025 17.2162 6.15561 17.4705 6.34315 17.6581C6.53068 17.8456 6.78504 17.951 7.05025 17.951C7.31547 17.951 7.56982 17.8456 7.75736 17.6581L12 13.4154L16.2426 17.6581C16.4302 17.8456 16.6845 17.951 16.9497 17.951C17.215 17.951 17.4693 17.8456 17.6569 17.6581C17.8444 17.4705 17.9497 17.2162 17.9497 16.951C17.9497 16.6857 17.8444 16.4314 17.6569 16.2438Z" fill="currentColor"/>
</svg>
