<svg width="207" height="50" viewBox="0 0 207 50" fill="none" xmlns="http://www.w3.org/2000/svg">
  <path d="M64.6875 38V11.8182H76.0398C78.0341 11.8182 79.7088 12.0866 81.0639 12.6236C82.4276 13.1605 83.4545 13.919 84.1449 14.8991C84.8438 15.8793 85.1932 17.0341 85.1932 18.3636C85.1932 19.3267 84.9801 20.2045 84.554 20.9972C84.1364 21.7898 83.5483 22.4545 82.7898 22.9915C82.0313 23.5199 81.1449 23.8864 80.1307 24.0909V24.3466C81.2557 24.3892 82.2784 24.6747 83.1989 25.2031C84.1193 25.723 84.8523 26.4432 85.3977 27.3636C85.9432 28.2756 86.2159 29.3494 86.2159 30.5852C86.2159 32.017 85.8409 33.2912 85.0909 34.4077C84.3494 35.5241 83.2926 36.402 81.9205 37.0412C80.5483 37.6804 78.9119 38 77.0114 38H64.6875ZM71.7955 32.3239H75.1193C76.3125 32.3239 77.2074 32.1023 77.804 31.6591C78.4006 31.2074 78.6989 30.5426 78.6989 29.6648C78.6989 29.0511 78.5582 28.5312 78.277 28.1051C77.9957 27.679 77.5952 27.3551 77.0753 27.1335C76.5639 26.9119 75.946 26.8011 75.2216 26.8011H71.7955V32.3239ZM71.7955 22.4034H74.7102C75.3324 22.4034 75.8821 22.3054 76.3594 22.1094C76.8366 21.9134 77.2074 21.6321 77.4716 21.2656C77.7443 20.8906 77.8807 20.4347 77.8807 19.8977C77.8807 19.0881 77.5909 18.4702 77.0114 18.044C76.4318 17.6094 75.6989 17.392 74.8125 17.392H71.7955V22.4034ZM92.3344 38V11.8182H103.636C105.579 11.8182 107.279 12.1719 108.736 12.8793C110.194 13.5866 111.327 14.6051 112.137 15.9347C112.947 17.2642 113.351 18.858 113.351 20.7159C113.351 22.5909 112.934 24.1719 112.099 25.4588C111.272 26.7457 110.109 27.7173 108.609 28.3736C107.117 29.0298 105.374 29.358 103.38 29.358H96.6298V23.8352H101.948C102.783 23.8352 103.495 23.733 104.083 23.5284C104.68 23.3153 105.136 22.9787 105.451 22.5185C105.775 22.0582 105.937 21.4574 105.937 20.7159C105.937 19.9659 105.775 19.3565 105.451 18.8878C105.136 18.4105 104.68 18.0611 104.083 17.8395C103.495 17.6094 102.783 17.4943 101.948 17.4943H99.4423V38H92.3344ZM107.675 25.983L114.221 38H106.499L100.107 25.983H107.675ZM126.782 38H119.112L127.754 11.8182H137.47L146.112 38H138.441L132.714 19.0284H132.51L126.782 38ZM125.351 27.6705H139.771V32.9886H125.351V27.6705ZM174.887 11.8182V38H168.955L159.495 24.2443H159.342V38H152.234V11.8182H158.268L167.575 25.5227H167.779V11.8182H174.887ZM191.923 38H181.849V11.8182H191.821C194.514 11.8182 196.841 12.3423 198.801 13.3906C200.77 14.4304 202.287 15.9304 203.352 17.8906C204.426 19.8423 204.963 22.1818 204.963 24.9091C204.963 27.6364 204.43 29.9801 203.365 31.9403C202.3 33.892 200.791 35.392 198.839 36.4403C196.888 37.4801 194.582 38 191.923 38ZM188.957 31.9659H191.667C192.963 31.9659 194.067 31.7571 194.978 31.3395C195.899 30.9219 196.598 30.2017 197.075 29.179C197.561 28.1562 197.804 26.733 197.804 24.9091C197.804 23.0852 197.557 21.6619 197.062 20.6392C196.576 19.6165 195.861 18.8963 194.915 18.4787C193.977 18.0611 192.826 17.8523 191.463 17.8523H188.957V31.9659Z" fill="#555555"/>
  <path d="M2.53906 35.732L6.34033 42.3005C7.0918 43.7856 8.621 44.8021 10.3979 44.8021H35.6281L30.3946 35.732H2.53906ZM46.7227 33.31L32.0302 7.61113C31.2699 6.1791 29.7582 5.19775 28.0166 5.19775H20.2019L42.9478 44.7667L46.5458 38.5345C46.7139 38.2517 48.4023 35.9088 46.7227 33.31ZM26.6729 29.2874L16.4625 11.607L6.25195 29.2874H26.6729Z" fill="#FF066F"/>
</svg>
